<?xml version="1.0" encoding="UTF-8"?>
<svg version="1.1" viewBox="0 0 1912 925" width="1280" height="1280" xmlns="http://www.w3.org/2000/svg">
<path transform="translate(0)" d="m0 0h1912v925h-1912z" fill="#FBFBFB"/>
<path transform="translate(23,146)" d="m0 0h313l5 4 1 2v46l-4 5-2 1h-313l-5-4-1-2v-46l4-5z" fill="#04C9D7"/>
<path transform="translate(415,291)" d="m0 0h109l7 6 1 2v44l-6 7-2 1h-109l-7-6-1-2v-44l6-7z" fill="#08CAD7"/>
<path transform="translate(1247,191)" d="m0 0h14l10 4 6 4 7 8 4 8 1 4v14l-4 10-4 6-8 7-8 4-4 1h-14l-10-4-6-4-7-8-4-8-1-4v-14l4-10 4-6 8-7 8-4z" fill="#FEC90F"/>
<path transform="translate(1533,191)" d="m0 0h12l11 4 8 6 6 8 4 11v12l-4 11-6 8-8 6-11 4h-12l-11-4-8-6-6-8-4-11v-12l4-11 6-8 8-6z" fill="#FEF3E1"/>
<path transform="translate(1249,411)" d="m0 0h10l10 3 9 6 6 7 4 9 1 5v10l-3 10-6 9-7 6-9 4-5 1h-10l-10-3-9-6-6-7-4-9-1-5v-10l3-10 6-9 7-6 9-4z" fill="#EAFAF2"/>
<path transform="translate(964,191)" d="m0 0h10l10 3 9 6 7 9 3 7 1 5v10l-3 10-6 9-9 7-7 3-5 1h-10l-10-3-9-6-7-9-3-7-1-5v-10l3-10 6-9 9-7 7-3z" fill="#E5FAFB"/>
<path transform="translate(1845,837)" d="m0 0h13l11 4 10 9 5 10 1 4v13l-4 11-9 10-10 5-4 1h-13l-11-4-10-9-5-10-1-4v-13l4-11 9-10 10-5z" fill="#03C9D7"/>
<path transform="translate(1905)" d="m0 0h7v505l-2 2-4-1-1-1z" fill="#D8D8D8"/>
<path transform="translate(1113,725)" d="m0 0h20l7 4 4 5 1 3v11l-4 7-5 4-3 1h-20l-7-4-4-5-1-3v-11l4-7 5-4z" fill="#DEF6ED"/>
<path transform="translate(1723,11)" d="m0 0h7l8 3 7 8 2 5v9l-4 8-9 6-10 1-4-1-8-5-4-7-1-10 4-9 7-6z" fill="#D8D7D6"/>
<path transform="translate(1850,852)" d="m0 0 5 1 3 4 5-1 3 3-1 6 5 3v5l-2 2h-3l1 8-2 2-7-1-3 5h-5l-2-5-7 1-2-1v-8l-5-3 1-5 5-2-2-6 4-4 6 2 1-5z" fill="#03C9D7"/>
<path transform="translate(1799,16)" d="m0 0 4 1v3l4 1h3l4-1 1-4h3v4h4v8h2v-8h4l1-4h3v15h-11-3-7l-3-2-3 2h-9l-1-3h-4l-1 3-4-1 5-13h4l3 8z" fill="#D9D9D9"/>
<path transform="translate(1072,841)" d="m0 0 9 1 2 2v6l-3 4 4 4v6l-3 3-9 1-5-3-1-6 3-4h2l-4-6 1-5z"/>
<path transform="translate(1072,721)" d="m0 0 9 1 2 2v6l-3 4 4 4v6l-3 3-9 1-5-3-1-6 3-4h2l-4-6 1-5z"/>
<path transform="translate(998,841)" d="m0 0h6l5 5-1 5-3 3 4 3 1 5-2 4-4 2h-7l-5-4v-6l4-4-3-4v-6z"/>
<path transform="translate(1724,13)" d="m0 0h5l6 4v2h2l2 4-1 6-3 6 1 5 6 4-4 4-6 2 1-8-3 2h-5l3-2 4-4 2-9-5 1-1-2 3-3-10-1-2 5h4l-1 2-3-1v5l-3-3-2-5 1-7 5-5z"/>
<path transform="translate(1850,852)" d="m0 0 5 1 3 4 5-1 3 3-1 6 5 3v5l-2 2h-3l1 8-2 2-7-1-3 5h-5l-2-5-7 1-2-1v-8l-5-3 1-5 5-2-2-6 4-4 6 2 1-5zm1 3-3 5-7-1-1 3 1 4-1 2-4 2 1 3 4 2-1 6 4 1h6v4l4-1 1-3h8v-8l4-2v-3l-4-2v-8l-7 1-3-5z" fill="#F7FBFB"/>
<path transform="translate(1609,23)" d="m0 0h18l3 3v12l-18 1-3 2z" fill="#FBFBFB"/>
<path transform="translate(976,721)" d="m0 0 8 1 4 6v10l-3 7-6 3h-7l1-4 7-1 3-3v-4l-3 2-7-1-3-5 1-7z"/>
<path transform="translate(1721,23)" d="m0 0 10 2-2 4 2 1 1-2 2 1-1 9-5 5 5-2 1 2-2 7-2 1h-9v-14h3l-4-1-1-6 4-1h-4l1-5z" fill="#F7EEE2"/>
<path transform="translate(1521,285)" d="m0 0 6 1 3 2v-2l8-1 3 3-2 5 2 1v6l-3 2h-6-3-11l2-4 5-6v-4h-6v-2z" fill="#E7F1E3"/>
<path transform="translate(1672,23)" d="m0 0h6l4 4 1 2v10h2v2h-21v-2h2v-11z" fill="#F7FBFB"/>
<path transform="translate(41,167)" d="m0 0h12l2 3v14l-1 1h-14l-1-1v-14z" fill="#54D9E3"/>
<path transform="translate(957,839)" d="m0 0h2v3l6 1-1 4-4-1-1 7 5 1 2 2v7l-6 3-1 4h-2v-4l-8-1v-4l7 1 1-7-5-1-3-4 1-5 4-3h3z" fill="#1D1E18"/>
<path transform="translate(957,719)" d="m0 0h2v3l6 1-1 4-4-1-1 7 5 1 2 2v7l-6 3-1 4h-2v-4l-8-1v-4l7 1 1-7-5-1-3-4 1-5 4-3h3z" fill="#1D1E18"/>
<path transform="translate(1552,21)" d="m0 0h6l1 5h18l-1 10-2 3h-13l-2-1-3-15h-4z" fill="#03C9D7"/>
<path transform="translate(1034,841)" d="m0 0h4l1 17 3 1v3h-4v6h-3v-6h-13l1-5z"/>
<path transform="translate(981,841)" d="m0 0h4l1 17 3 1v3h-4v6h-3v-6h-13l1-5z"/>
<path transform="translate(1034,721)" d="m0 0h4l1 17 3 1v3h-4v6h-3v-6h-13l1-5z"/>
<path transform="translate(1629,16)" d="m0 0h6l2 2v6l-2 2h-3v12l-2 2-17 1-4 4h-2v-23l1-1h19l1-4zm-20 7v18l3-2 18-1v-12l-3-3z" fill="#03C9D7"/>
<path transform="translate(50,548)" d="m0 0 5 1v15h-16v-14l5-1 6 1z" fill="#E4E4E4"/>
<path transform="translate(506,231)" d="m0 0h6l3 3-1 5-2 3 3 1 1 5-4 4h-6l-4-4 1-5 3-1-3-4 1-5z"/>
<path transform="translate(549,231)" d="m0 0 7 1 1 1v6l-3 1v2l4 2v5l-4 3h-6l-3-3v-5l2-4-2-5z"/>
<path transform="translate(33,21)" d="m0 0 7 1 1 2-10 2-1 3v7l5 4 7 3-2 2-7 1-7-3-3-4-1-7 3-7 4-3z"/>
<path transform="translate(1050,841)" d="m0 0 9 1 3 4-1 5-3 3 4 3v7l-3 3-3 1h-8l-3-1 1-4 8 1 3-1 1-6-9-1v-3l8-3v-5l-11 1-1-3z"/>
<path transform="translate(1050,721)" d="m0 0 9 1 3 4-1 5-3 3 4 3v7l-3 3-3 1h-8l-3-1 1-4 8 1 3-1 1-6-9-1v-3l8-3v-5l-11 1-1-3z"/>
<path transform="translate(997,721)" d="m0 0 9 1 3 4-1 5-3 3 4 3v7l-3 3-3 1h-8l-3-1 1-4 8 1 3-1 1-6-9-1v-3l8-3v-5l-11 1-1-3z"/>
<path transform="translate(39,614)" d="m0 0h16l1 1v18l-2-3h-4l-1-8-4-1-1 6-4-1-1 7h-1v-18z" fill="#474747"/>
<path transform="translate(1265,219)" d="m0 0h2v15l-12 5v-16z" fill="#FEC90F"/>
<path transform="translate(1241,219)" d="m0 0 12 4v16l-12-5z" fill="#FEC90F"/>
<path transform="translate(1243,215)" d="m0 0m20 0 6 2v17l-4 3-10 4-9-3-7-3v-18l4-1 2 4-4-1 1 15 10 4 1-16 11-4zm2 4-10 4v16l12-5v-15z" fill="#FFF4E5"/>
<path transform="translate(433,231)" d="m0 0h5v2l-7 2-3 6 4-2 6 1 2 3-1 7-3 2-7-1-3-6 1-9 4-4z"/>
<path transform="translate(123,29)" d="m0 0h3v2l3-2 5 1 1 2v8l-3 3-5-1-1 7h-3z"/>
<path transform="translate(108,29)" d="m0 0 4 1 5-1 3 3v8l-3 3-5-1-1 7h-3z"/>
<path transform="translate(39,616)" d="m0 0h1l1 10 3 1v-11h1l1 5 3 1v-6h1l1 14h2l1-14h1v18h-16z" fill="#F8F8F8"/>
<path transform="translate(92,109)" d="m0 0h7l3 3 1 5-2 5-2 1h-7l-3-3v-8z" fill="#D8D8D8"/>
<path transform="translate(1251,212)" d="m0 0 9 1 3 2v2l2 1-12 5-5-1-3-1-2-5z" fill="#FFF4E5"/>
<path transform="translate(130,109)" d="m0 0h8l4 4v6l-4 4h-8z" fill="#D8D8D8"/>
<path transform="translate(24,109)" d="m0 0h8l3 3 1 6-4 5h-8z" fill="#D8D8D8"/>
<path transform="translate(494,231)" d="m0 0h3v14h3v2h-3v5h-2v-5h-11l2-5z"/>
<path transform="translate(76,109)" d="m0 0h9l2 4-1 3 1 5-2 2h-9z" fill="#E1E1E1"/>
<path transform="translate(415,229)" d="m0 0 1 3 5 1v2l-5-1v7l5 1 1 6-4 3h-2l-1 3v-3l-6-1v-2l6 1v-7l-5-2-1-5 3-3h3z" fill="#29332E"/>
<path transform="translate(1721,23)" d="m0 0 10 2-2 4 2 1 1-2 2 1v5h-4v4l-3-1v-2l-7 1-1-6 4-1h-4l1-5z" fill="#F9E9C3"/>
<path transform="translate(88,292)" d="m0 0 6 1 2 3v6l-4 4-6-1-2-2v-8z" fill="#B0B0B0"/>
<path transform="translate(97,29)" d="m0 0 6 1 2 3v6l-4 4-6-1-2-2v-8z"/>
<path transform="translate(1672,23)" d="m0 0h6l4 4 1 2v10h2v2h-21v-2h2v-11zm2 2-5 3-1 3v7l1 1h11l1-1v-7l-3-5z" fill="#03C9D7"/>
<path transform="translate(475,202)" d="m0 0h8l-2 7v2l2 1-1 5-2 1h-6l-2-4 2-5-1-5z" fill="#D1DDDD"/>
<path transform="translate(477,231)" d="m0 0h2v14h4v2h-4v5h-1v-5h-11l2-5z"/>
<path transform="translate(1531,325)" d="m0 0 5 1h2l7-1v2l-4 1 4 2-1 5h-6-2-5l-2-2v-6z" fill="#EEEDEC"/>
<path transform="translate(949,769)" d="m0 0h8l1 5 1 7-2 2h-8z" fill="#E2E6E1"/>
<path transform="translate(1264,619)" d="m0 0h8l1 5 1 7-2 2h-8z" fill="#CDEEE7"/>
<path transform="translate(42,361)" d="m0 0 5 1 2 3 4 1 2 5h-6v2h-10l1-10z" fill="#5C5C5C"/>
<path transform="translate(166,751)" d="m0 0h2l1 8 2-1v3h-3v5h-8l-3-3 1-7 7-1z" fill="#A3A3A3"/>
<path transform="translate(1243,435)" d="m0 0 5 1 2-1h9l6 6v5l-3-1-2-5-2-1h-8l-1 1 3 1-1 3h-8l-1-2v-6z" fill="#03C9D7"/>
<path transform="translate(987,772)" d="m0 0h8l-2 6-5 1v2h6l1 5-3 2h-6l-2-4 2-3v-8z" fill="#CAE0DB"/>
<path transform="translate(1243,446)" d="m0 0 3 1 2 5 2 1h8l2-1-4-2 1-2h8l1 1v7h-4l-4 1h-9l-6-6z" fill="#03C9D7"/>
<path transform="translate(1236,505)" d="m0 0 6 1 2 4-1 8-4 4h-5v-2l6-2 1-2-7-1-1-7z"/>
<path transform="translate(1255,285)" d="m0 0 6 1 2 4-1 8-4 4h-5v-2l6-2 1-2-7-1-1-7z"/>
<path transform="translate(951,285)" d="m0 0 6 1 2 4-1 8-4 4h-5v-2l6-2 1-2-7-1-1-7z"/>
<path transform="translate(1849,865)" d="m0 0h6l3 4-1 6-3 2-6-1-2-2v-6z" fill="#F8FBFB"/>
<path transform="translate(1608,289)" d="m0 0 5 1v4l1 6-3 2-5-1-3-1-1-4-2-1 1-5 3 1v3l2-3z" fill="#7DC5BB"/>
<path transform="translate(1270,285)" d="m0 0h4v2l-6 1-1 4 6-1 2 2v7l-3 2-5-1-2-3v-8z"/>
<path transform="translate(1566,285)" d="m0 0 5 1 2 2v10l-5 4h-4v-2l6-2 1-3-6 1-2-2v-6z"/>
<path transform="translate(981,768)" d="m0 0h2v15h-8l-2-2v-7l3-2h4z" fill="#82D1CE"/>
<path transform="translate(970,892)" d="m0 0h7l3 3-1 7-6 1-1 5h-2z" fill="#A6D3CC"/>
<path transform="translate(1296,618)" d="m0 0h2v15h-7l-3-2v-7l3-2h4z" fill="#B1E7DE"/>
<path transform="translate(1560,28)" d="m0 0h14v6l-1 2h-12z" fill="#F8FBFB"/>
<path transform="translate(1028,622)" d="m0 0h7l2 2v7l-2 2-4 1-1 4h-2z" fill="#AAB2A5"/>
<path transform="translate(1157,622)" d="m0 0h3l5 1 1 1-1 9h-5l-1 5h-2z" fill="#75928F"/>
<path transform="translate(78,24)" d="m0 0h3v6l6-1 2 2v12h-2l-1-11-4 1-1 10h-3z"/>
<path transform="translate(44,751)" d="m0 0 7 6 2 3-5 5h-4l-4-5 3-4z" fill="#8D8D8D"/>
<path transform="translate(1284,505)" d="m0 0h3v11h2v2h-2v4h-2v-4h-8l2-5z"/>
<path transform="translate(114,291)" d="m0 0h2v15h-6l-3-2v-7l3-2h4z" fill="#626262"/>
<path transform="translate(999,285)" d="m0 0h3v11h2v2h-2v4h-2v-4h-8l2-5z"/>
<path transform="translate(67,25)" d="m0 0 7 1-1 3-6-1 1 3 6 4v6l-3 2-7-1 1-3 6 1v-4l-6-2-1-1v-6z"/>
<path transform="translate(64,814)" d="m0 0h8l1 1v5l-1 3 2 5h-3l-3-5-2-1v6h-2z" fill="#DEDEDE"/>
<path transform="translate(118,109)" d="m0 0h8l1 1v5l-1 3 2 5h-3l-3-5-2-1v6h-2z" fill="#DEDEDE"/>
<path transform="translate(137,29)" d="m0 0h3l3 8 2-3 2-5h3l-3 10-4 9-5 1v-3h3l-1-7z"/>
<path transform="translate(36,814)" d="m0 0h3v5h6v-5h3v14h-3v-7h-6v7h-3z" fill="#D8D8D8"/>
<path transform="translate(101,683)" d="m0 0h2v14l-6 1-3-2v-7l3-2h4z" fill="#A7A7A7"/>
<path transform="translate(114,362)" d="m0 0h6l3 2v7l-2 2h-6v5h-1z" fill="#6C6C6C"/>
<path transform="translate(440,317)" d="m0 0 7 1 1 7-3 3h-5l-2-2v-7z" fill="#F0F7F7"/>
<path transform="translate(48,489)" d="m0 0h8l2 2-1 5-1 1h-5v6h-3z" fill="#DFDFDF"/>
<path transform="translate(36,489)" d="m0 0h8l2 2-1 5-1 1h-5v6h-3z" fill="#DFDFDF"/>
<path transform="translate(1194,622)" d="m0 0h5v2h-5l1 2 4 1v5l-1 1-7-1-3 1-1-10 4 1z" fill="#7D9895"/>
<path transform="translate(120,616)" d="m0 0h1v5l5-1 3 2v7l-2 2-7-1z" fill="#A0A0A0"/>
<path transform="translate(40,555)" d="m0 0h13v7h-13z" fill="#F9F9F9"/>
<path transform="translate(1279,323)" d="m0 0 1 2 6 1v3l4 1 1 4-1 1h-10l-1-1-1-9z" fill="#E9EBEA"/>
<path transform="translate(1512,285)" d="m0 0h2v11h3v2h-3v4h-2v-4h-7l1-4z" fill="#2E3938"/>
<path transform="translate(1227,285)" d="m0 0h2v11h3v2h-3v4h-2v-4h-7l1-4z" fill="#2E3938"/>
<path transform="translate(107,172)" d="m0 0 6 1 1 7-3 3-6-1-1-2v-6z" fill="#EFFAFB"/>
<path transform="translate(44,425)" d="m0 0 5 1 1 6-2 4 2 1-1 2-5-1-4 2 1-3 2-1-2-4v-5z" fill="#A2A2A2"/>
<path transform="translate(133,362)" d="m0 0 5 1 2 1v7l-3 2-5-1-2-1v-7z" fill="#B4B4B4"/>
<path transform="translate(485,317)" d="m0 0h5l3 4-1 5-2 2h-5l-2-2v-7z" fill="#F3F9F9"/>
<path transform="translate(1048,618)" d="m0 0h1v15h-6l-3-3 1-7 5-1 2 1z" fill="#75827A"/>
<path transform="translate(1255,321)" d="m0 0h2v14h-7l-2-3 1-6 1-1h5z" fill="#97D3D7"/>
<path transform="translate(116,755)" d="m0 0h5v2h2l-2 9h-5l-3-2v-7z" fill="#B3B3B3"/>
<path transform="translate(1684,16)" d="m0 0h6l2 2v6l-2 2h-6l-2-2v-6z" fill="#FEC90F"/>
<path transform="translate(978,724)" d="m0 0 5 2 1 1v6l-4 2-5-1-1-7z" fill="#E8F2E5"/>
<path transform="translate(409,199)" d="m0 0h8v3h-5v2l5 1v2h-5v3h5v3h-8z" fill="#D8D8D8"/>
<path transform="translate(41,109)" d="m0 0 4 1 4 10v3l-3-1-1-2-5-1-1 4-3-1z" fill="#DBDBDB"/>
<path transform="translate(62,109)" d="m0 0h2v5h7v-5h3v14h-3v-7h-7v7h-2z" fill="#D8D8D8"/>
<path transform="translate(54,814)" d="m0 0h3l5 12v2l-3-1-1-2-5-1-1 4-3-1z" fill="#DBDBDB"/>
<path transform="translate(27,489)" d="m0 0h3l5 14h-3l-1-4-5 1-2 3h-2l3-10z" fill="#DBDBDB"/>
<path transform="translate(39,232)" d="m0 0h3l5 14h-3l-1-4-5 1-2 3h-2l3-10z" fill="#DBDBDB"/>
<path transform="translate(108,109)" d="m0 0h3l5 12v2l-3-1-1-2-5-1-1 4-3-1z" fill="#DBDBDB"/>
<path transform="translate(953,325)" d="m0 0 3 1 7-1v2l-4 1 5 3-2 4h-9l-1-2z" fill="#C8E2E2"/>
<path transform="translate(421,202)" d="m0 0h6l2 2v9h-8l-2-4 2-3h5v-2l-5 1z" fill="#DBDBDA"/>
<path transform="translate(52,232)" d="m0 0h8v2l-8 1-1 6 1 2 6 1v-3l-4-1v-1h6v7h-9l-3-3v-8z" fill="#D8D8D8"/>
<path transform="translate(24,232)" d="m0 0h8l1 1v5l-2 2h-5v6h-2z" fill="#E0E0E0"/>
<path transform="translate(99,755)" d="m0 0 5 1 1 7-3 3-5-1-1-7z" fill="#9A9B9B"/>
<path transform="translate(1117,738)" d="m0 0 6 1v8l-7 2-5-1z" fill="#B0ECEB"/>
<path transform="translate(122,687)" d="m0 0 5 1 1 7-3 3-5-1-1-7z" fill="#9A9B9B"/>
<path transform="translate(128,430)" d="m0 0 5 1 1 7-3 3-5-1-1-7z" fill="#9A9B9B"/>
<path transform="translate(426,315)" d="m0 0 6 1 2 3-1 6-4 2h-3z" fill="#03C9D7"/>
<path transform="translate(116,172)" d="m0 0h14l2 2v9h-2l-1-9-3 1-1 8h-2l-1-9-3 1-1 8h-2z" fill="#EEFAFB"/>
<path transform="translate(1275,541)" d="m0 0h1v14h-6l-2-2v-6l2-2h5z" fill="#CDD7D7"/>
<path transform="translate(998,856)" d="m0 0h5l3 3-1 5-7 1-3-3 2-5z" fill="#EBF0DD"/>
<path transform="translate(460,202)" d="m0 0h8l2 1v10h-3v-8l-3 1-1 7h-3z" fill="#CFD7D7"/>
<path transform="translate(93,111)" d="m0 0h5l2 2v6l-2 2h-5l-2-3 1-6z" fill="#FCFCFC"/>
<path transform="translate(971,229)" d="m0 0h7l4 3v3h-15l2-5z" fill="#03C9D7"/>
<path transform="translate(1073,856)" d="m0 0 6 1 1 1v5l-3 2-6-1-1-5z" fill="#E5F3EB"/>
<path transform="translate(1073,736)" d="m0 0 6 1 1 1v5l-3 2-6-1-1-5z" fill="#E5F3EB"/>
<path transform="translate(52,682)" d="m0 0 4 1-2 5-6 6-5 1 2-6z"/>
<path transform="translate(430,241)" d="m0 0h6l2 2v5l-2 2h-5l-3-4z" fill="#E7F3E4"/>
<path transform="translate(441,202)" d="m0 0h8l2 2v9h-3v-8h-4v8h-3z" fill="#D8D8D8"/>
<path transform="translate(1221,542)" d="m0 0h6l2 2-1 7 2 4-3-1-2-3-3-1v5h-1z" fill="#D7E3E3"/>
<path transform="translate(1266,505)" d="m0 0h8v2h-6v4l6 1 1 1v6l-3 3h-6v-3h5l2-5-8-1z"/>
<path transform="translate(449,317)" d="m0 0h2l1 7h2l1-6 3-1 2 6 2-6h2l-2 10-3 1-2-5-2 3-1 2h-2l-3-9z" fill="#F1FAFA"/>
<path transform="translate(981,285)" d="m0 0h8v2h-6v4l6 1 1 1v6l-3 3h-6v-3h5l2-5-8-1z"/>
<path transform="translate(1303,622)" d="m0 0h7l-2 6-2 1-3-1v3h6l1 5-2-1v-2h-6l-1-5v-5z" fill="#56DAE1"/>
<path transform="translate(984,892)" d="m0 0h5l2 2v4h-7v3h6v2h-6l-3-4 1-5z" fill="#D1DDD6"/>
<path transform="translate(135,172)" d="m0 0h14l1 1v10h-1l-1-8-4-1v9h-2l-1-8-4-1v9h-2z" fill="#F2FBFB"/>
<path transform="translate(1272,325)" d="m0 0 6 1v8l-6 1-2-2v-6z" fill="#ECEEEE"/>
<path transform="translate(1240,325)" d="m0 0 5 1 1 1v6l-2 2-5-1-1-1v-6z" fill="#E7EAE9"/>
<path transform="translate(974,325)" d="m0 0 5 1 1 1v6l-2 2-5-1-1-1v-6z" fill="#E3E9E8"/>
<path transform="translate(1552,285)" d="m0 0 7 1 1 4-2 3 2 1v6l-3 2h-6v-3h6v-4l-5-1v-2l5-2v-2h-7v-2z"/>
<path transform="translate(1533,285)" d="m0 0 7 1 1 4-2 3 2 1v6l-3 2h-6v-3h6v-4l-5-1v-2l5-2v-2h-7v-2z"/>
<path transform="translate(931,619)" d="m0 0h6l2 1v5l-3 4v-2h-4v6h-1z"/>
<path transform="translate(1730,34)" d="m0 0h3l-1 5-4 4h-5v5h-1l-1-11h3l3-1h2z" fill="#F4E3B1"/>
<path transform="translate(88,814)" d="m0 0h7v2h-6l1 3 5 2 1 5-2 2h-8v-2h7l-1-3-6-4 1-4z" fill="#D8D8D8"/>
<path transform="translate(999,772)" d="m0 0 5 1 1 5h-7l1 2 6 1-1 2h-5l-3-2v-7z" fill="#CCD6D1"/>
<path transform="translate(75,232)" d="m0 0h7v2h-6l1 3 5 2 1 5-2 2h-8v-2h7l-1-3-6-4 1-4z" fill="#D8D8D8"/>
<path transform="translate(63,232)" d="m0 0h9l-1 2h-6v3h6v2h-6v5h6l1 2h-9z" fill="#D8D8D8"/>
<path transform="translate(963,217)" d="m0 0 6 1 1 5-2 3h-5l-2-2v-5z" fill="#1ECEDB"/>
<path transform="translate(132,111)" d="m0 0h6l1 1v7l-2 2h-5z" fill="#FCFCFC"/>
<path transform="translate(52,109)" d="m0 0h7v2h-6l1 3 5 2 1 5-2 2h-8v-2h7l-1-3-6-4 1-4z" fill="#D8D8D8"/>
<path transform="translate(1018,892)" d="m0 0 5 1 1 5h-7l1 2 6 1-1 2-7-1-1-7z" fill="#C5DEDF"/>
<path transform="translate(98,620)" d="m0 0 6 1v8l-3 2-5-1v-5l1-1h5v-2h-5z" fill="#969797"/>
<path transform="translate(527,231)" d="m0 0h14l-1 5-8 16-2-1 8-17-11-1z"/>
<path transform="translate(1034,846)" d="m0 0h1v12l-1 1h-7v-3z" fill="#D7E8CA"/>
<path transform="translate(981,846)" d="m0 0h1v12l-1 1h-7v-3z" fill="#D7E8CA"/>
<path transform="translate(1034,726)" d="m0 0h1v12l-1 1h-7v-3z" fill="#D7E8CA"/>
<path transform="translate(43,298)" d="m0 0 1 2h10v2h2v2h-3l-1 3h-2v-3l-7 2-1-4z" fill="#888"/>
<path transform="translate(1521,285)" d="m0 0 6 1 1 1-1 7-5 5 7 1v2h-11l2-4 5-6v-4h-6v-2z"/>
<path transform="translate(549,242)" d="m0 0 6 1 1 1v5l-1 1h-7l-2-4z" fill="#E3F2E3"/>
<path transform="translate(475,210)" d="m0 0 8 2-1 5-2 1h-6l-2-4z" fill="#D2DCDC"/>
<path transform="translate(184,172)" d="m0 0h5l2 2v4h-7v3h7l-1 2-7-1-1-2v-6z" fill="#B5EEF2"/>
<path transform="translate(155,172)" d="m0 0h5l2 2v4h-7v3h7l-1 2-7-1-1-2v-6z" fill="#B5EEF2"/>
<path transform="translate(26,111)" d="m0 0h5l2 2v6l-2 2h-5z" fill="#FCFCFC"/>
<path transform="translate(1759,17)" d="m0 0h2v6h6v-6h2v13h-2v-5h-6v5h-2z" fill="#D8D8D8"/>
<path transform="translate(132,620)" d="m0 0 7 1v10h-6l-2-2 1-4 5-1v-2h-5z" fill="#828282"/>
<path transform="translate(1221,322)" d="m0 0h6l2 2-1 5-1 1h-5v5h-1z" fill="#DDE4E4"/>
<path transform="translate(497,317)" d="m0 0h5l1 1v10h-7l-1-1v-5l7-1v-2h-6z" fill="#AFECF0"/>
<path transform="translate(141,752)" d="m0 0 7 1 1 5-3 2h-4v6h-1z" fill="#7B7B7B"/>
<path transform="translate(61,489)" d="m0 0h7l1 2h-7v3l6 2 1 5-2 2h-7l-1-2 7-1v-2l-6-3v-5z" fill="#D8D8D8"/>
<path transform="translate(507,242)" d="m0 0 5 1 2 2-1 4-1 1h-6l-2-2 1-4z" fill="#EAF4EB"/>
<path transform="translate(949,889)" d="m0 0h8l-1 2h-5v3h5l1 2h-6v5h5l1 2h-8z" fill="#B1D5D7"/>
<path transform="translate(26,814)" d="m0 0h8v2l-7 1-1 5 1 3 7 1v2h-8l-3-3v-7z" fill="#D8D8D8"/>
<path transform="translate(38,29)" d="m0 0 6 1 3 2-1 6-9-4-1-4z"/>
<path transform="translate(1721,23)" d="m0 0 10 2-2 5-6 1v-2h-4l1-5z" fill="#F7E2A3"/>
<path transform="translate(1074,622)" d="m0 0 5 1 1 5h-8l1 2 6 1-1 2-6-1-1-1v-7z" fill="#59695B"/>
<path transform="translate(486,202)" d="m0 0h5v3l-4-1v2l4 1 1 5-2 1h-6v-3l5 1v-2l-5-2 1-4z" fill="#D8D8D8"/>
<path transform="translate(143,548)" d="m0 0h2v8l-2 1v-3h-5v7h5l1-2v3l-1 1h-6l-1-2v-7l2-2h5z" fill="#737373"/>
<path transform="translate(1329,510)" d="m0 0 2 1 1 3 2-2v2l4 1 1 4-2 3-3-1-2-3-2 1v-2l-3-1h2z" fill="#F9D44C"/>
<path transform="translate(1034,290)" d="m0 0 2 1 1 3 2-2v2l4 1 1 4-2 3-3-1-2-3-2 1v-2l-3-1h2z" fill="#F9D44C"/>
<path transform="translate(962,228)" d="m0 0h6l-2 4-1 3h-9l1-4z" fill="#03C9D7"/>
<path transform="translate(1205,622)" d="m0 0 5 1 2 2v3h-8l2 3 3 2-5-1-2-3 1-5z" fill="#B3BFB3"/>
<path transform="translate(40,366)" d="m0 0h6v2l4 2-1 3h-10z" fill="#D0D0D0"/>
<path transform="translate(410,32)" d="m0 0h19v3h-19z" fill="#03C9D7"/>
<path transform="translate(1054,622)" d="m0 0h5l1 1v9l-6 1-2-2 1-4 6-1-1-2h-4z" fill="#5C6357"/>
<path transform="translate(999,844)" d="m0 0 5 1 1 5-3 2-4-1-2-2 1-4z" fill="#E2F0DF"/>
<path transform="translate(39,684)" d="m0 0h8l-1 2h-6v13h13v1h-14l-1-2v-13z" fill="#4A4A4A"/>
<path transform="translate(1153,622)" d="m0 0 3 1v9l-3 1-3-3-2 3-2-1 3-5z" fill="#76A2A5"/>
<path transform="translate(1073,844)" d="m0 0 6 1 1 4-3 3-5-1-1-5z" fill="#DDEEDA"/>
<path transform="translate(1073,724)" d="m0 0 6 1 1 4-3 3-5-1-1-5z" fill="#DDEEDA"/>
<path transform="translate(54,616)" d="m0 0h1v18h-16v-2h11l1-2h2z" fill="#A2A2A2"/>
<path transform="translate(477,234)" d="m0 0h1v11h-9l6-9z" fill="#DAEAC6"/>
<path transform="translate(987,772)" d="m0 0h8l-2 6-6 2-1-7z" fill="#C3DFD9"/>
<path transform="translate(155,555)" d="m0 0h1v8h-7l-1-5 1-2z" fill="#838383"/>
<path transform="translate(103,555)" d="m0 0h1v8h-7l-1-5 1-2z" fill="#838383"/>
<path transform="translate(494,234)" d="m0 0h1v11h-8l2-5z" fill="#D9EAC9"/>
<path transform="translate(1721,39)" d="m0 0h1v11l-6-2-3-2 1-3 6-2z"/>
<path transform="translate(51,617)" d="m0 0 3 1v12h-4v-12z"/>
<path transform="translate(158,430)" d="m0 0 5 1 1 5h-7v3h-2v-7z" fill="#868787"/>
<path transform="translate(155,362)" d="m0 0 5 1 1 5h-7v3h-2v-7z" fill="#868787"/>
<path transform="translate(1e3 325)" d="m0 0 6 1v4h-6v3h6l-1 2h-5l-2-3 1-6z" fill="#D7DFDF"/>
<path transform="translate(122,295)" d="m0 0 5 1 1 5h-7v3h-2v-7z" fill="#868787"/>
<path transform="translate(415,229)" d="m0 0 1 3 5 1v2l-5-1v5h-4l-2-5 2-2h3z" fill="#4F5B4D"/>
<path transform="translate(1516,325)" d="m0 0h5l1 1v9h-6l-1-5 1-1h5l-1-2h-4z" fill="#E1E1E1"/>
<path transform="translate(466,317)" d="m0 0h7l2 1v10h-2l-1-9h-4v9h-2z" fill="#F1F5F2"/>
<path transform="translate(1318,509)" d="m0 0 6 1 1 5-4 4 3 1v2h-8l2-4 3-4v-3z" fill="#F6D871"/>
<path transform="translate(38,291)" d="m0 0 18 1-1 7h-1v-5h-11l-1 3v-4h-4z" fill="#6C6C6C"/>
<path transform="translate(42,168)" d="m0 0h10l2 4h-14z" fill="#82E4EB"/>
<path transform="translate(74,814)" d="m0 0h12l-1 2h-4v12h-2v-12h-5z" fill="#D8D8D8"/>
<path transform="translate(966,622)" d="m0 0 5 1 1 5h-7l-1 3-1-5z" fill="#5E655D"/>
<path transform="translate(50,548)" d="m0 0 1 2 3 1-4 1h-7l-3-1v3h14v1h-14l1 8h-2v-13l5-1 6 1z"/>
<path transform="translate(1531,325)" d="m0 0 5 1 1 4h-7l2 3h4v2h-5l-2-2v-6z" fill="#D6DEDF"/>
<path transform="translate(1319,289)" d="m0 0 4 1 1 5 1 2-3 5-1-2 1-3h-4v-6z" fill="#7ED3C8"/>
<path transform="translate(549,233)" d="m0 0h5l2 4-3 3-5-1-1-4z" fill="#EAF3E7"/>
<path transform="translate(506,233)" d="m0 0h6l1 5-2 2-5-1-1-5z" fill="#DBF1E5"/>
<path transform="translate(1252,213)" d="m0 0 6 1-3 3-5 2h-6l-1-2z" fill="#FEC90F"/>
<path transform="translate(114,877)" d="m0 0 5 1 1 5-9 1v-5z" fill="#848484"/>
<path transform="translate(962,772)" d="m0 0h1l1 8 4-1 1-7h2v11h-8l-1-1z" fill="#A1D3D3"/>
<path transform="translate(115,552)" d="m0 0 5 1 1 5-9 1v-5z" fill="#848484"/>
<path transform="translate(1259,216)" d="m0 0 6 1-1 2-8 3-6-1 1-2z" fill="#FEC90F"/>
<path transform="translate(84,169)" d="m0 0h8v1h-6v5h6v1h-6v6h6v1h-8z" fill="#F5FBFB"/>
<path transform="translate(143,620)" d="m0 0h6l2 1v10h-1v-9l-4 2-1 7h-2z" fill="#555"/>
<path transform="translate(124,552)" d="m0 0h6l2 1v10h-1v-9l-4 2-1 7h-2z" fill="#555"/>
<path transform="translate(167,362)" d="m0 0 4 1 1 5h-7l-1 3v-7z" fill="#707070"/>
<path transform="translate(442,318)" d="m0 0 4 2v5l-4 2-2-1v-7z" fill="#03C9D7"/>
<path transform="translate(432,202)" d="m0 0h7v3l-3 1-1 7h-3z" fill="#D8D8D8"/>
<path transform="translate(108,173)" d="m0 0 4 2v5l-4 2-2-1v-7z" fill="#03C9D7"/>
<path transform="translate(112,32)" d="m0 0 5 1v6l-5 1-1-1v-6z" fill="#eee"/>
<path transform="translate(97,32)" d="m0 0 5 1v6l-5 1-1-1v-6z" fill="#F2F2F2"/>
<path transform="translate(1172,622)" d="m0 0 5 1v5h-7l-1 2 1-7z" fill="#667474"/>
<path transform="translate(1e3 622)" d="m0 0 5 1 1 5-9 1 1-5z" fill="#677266"/>
<path transform="translate(945,622)" d="m0 0 5 1 1 5-9 1 1-5z" fill="#677266"/>
<path transform="translate(54,555)" d="m0 0h1v9h-16l2-2h12v-6z" fill="#D2D2D2"/>
<path transform="translate(1223,512)" d="m0 0 6 1 2 2-1 5-3 2h-6v-3h6v-4l-4-1z"/>
<path transform="translate(487,318)" d="m0 0 4 2v5l-4 2-2-1v-7z" fill="#03C9D7"/>
<path transform="translate(938,292)" d="m0 0 6 1 2 2-1 5-3 2h-6v-3h6v-4l-4-1z"/>
<path transform="translate(180,755)" d="m0 0 4 1 1 5h-7l-1 2 1-7z" fill="#717171"/>
<path transform="translate(1317,622)" d="m0 0 3 1 1 5h-7l1 2 5 1v2h-6l-2-2 1-7 1 3h5v-3h-2z" fill="#95E3E5"/>
<path transform="translate(1264,619)" d="m0 0h8l1 5-4 1h-4-1z" fill="#D6F0E9"/>
<path transform="translate(1255,512)" d="m0 0 6 1 2 5-4 4h-6v-3h6v-4l-4-1z"/>
<path transform="translate(1242,292)" d="m0 0 6 1 2 5-4 4h-6v-3h6v-4l-4-1z"/>
<path transform="translate(970,292)" d="m0 0 6 1 2 5-4 4h-6v-3h6v-4l-4-1z"/>
<path transform="translate(127,32)" d="m0 0 5 1v6l-5 1-1-6z" fill="#F0F0F0"/>
<path transform="translate(138,554)" d="m0 0h5l2 2-1 4-1 1h-5z" fill="#F4F4F4"/>
<path transform="translate(1607,294)" d="m0 0 4 1 2 3-1 4h-5l-1-5z" fill="#C3E4D7"/>
<path transform="translate(109,297)" d="m0 0h6v6l-1 1h-5z" fill="#F4F4F4"/>
<path transform="translate(1026,289)" d="m0 0h2v9l2 1h-2v3h-2v-3h-6l1-3 1 2h4l-1-5v-3z" fill="#FECA14"/>
<path transform="translate(1008,892)" d="m0 0h5v2l-5 1v5l5 1v2l-7-1-1-1v-7z" fill="#C9D6CD"/>
<path transform="translate(1300,633)" d="m0 0h8l1 4-1 1h-6l-2-1z" fill="#C9EEE9"/>
<path transform="translate(1237,507)" d="m0 0 4 1 1 4-2 2-5-1 1-5z" fill="#DAEED6"/>
<path transform="translate(1566,287)" d="m0 0 5 1v5l-5 1-1-1v-5z" fill="#D4ECD3"/>
<path transform="translate(1256,287)" d="m0 0 4 1 1 4-2 2-5-1 1-5z" fill="#DAEED6"/>
<path transform="translate(952,287)" d="m0 0 4 1 1 4-2 2-5-1 1-5z" fill="#DAEED6"/>
<path transform="translate(1236,620)" d="m0 0h8l-4 2 7 7v2l-4-2-7-7z" fill="#73E0E4"/>
<path transform="translate(41,617)" d="m0 0 3 1v9l-4-1v-8z"/>
<path transform="translate(482,204)" d="m0 0h2l1 3 4 2v2l-5-1v2l-8-1 4-2z" fill="#FCFAF7"/>
<path transform="translate(973,894)" d="m0 0 5 1v5l-5 1-1-1v-5z" fill="#FBFAF8"/>
<path transform="translate(976,774)" d="m0 0h4l1 5-1 2-5-1v-5z" fill="#FAFBFA"/>
<path transform="translate(1272,546)" d="m0 0 3 1v6l-4 1-2-5z" fill="#FAFAF7"/>
<path transform="translate(1251,326)" d="m0 0 4 1v6l-4 1-1-1v-6z" fill="#FAFAF6"/>
<path transform="translate(1268,293)" d="m0 0 5 1v5l-4 1-2-2z" fill="#D6F0E6"/>
<path transform="translate(970,892)" d="m0 0h2l1 3-1 13h-2z" fill="#82D2D7"/>
<path transform="translate(1851,867)" d="m0 0 4 2-1 5-5-1-1-3z" fill="#03C9D7"/>
<path transform="translate(53,691)" d="m0 0h2v8h-15v-1h12v-6z" fill="#A6A6A6"/>
<path transform="translate(1303,622)" d="m0 0h7l-2 6-2 1-3-2z" fill="#B0E9DF"/>
<path transform="translate(116,364)" d="m0 0h5v7h-5z" fill="#F9F9F9"/>
<path transform="translate(1601,290)" d="m0 0 3 1v3l2-3 1 6-2 3h-2l-1-4-2-1z" fill="#A9D4B0"/>
<path transform="translate(973,221)" d="m0 0h4l1 5-4 2-3-3z" fill="#03C9D7"/>
<path transform="translate(1732,41)" d="m0 0 2 2-1 6-7-2-1-3 6-2z" fill="#E9D17C"/>
<path transform="translate(958,892)" d="m0 0 4 1 1 2 3-3 2 1-3 5-4 5h-2l2-7-1-3z" fill="#A0D3D1"/>
<path transform="translate(950,776)" d="m0 0h1v5l5-1 3-3-1 5-1 1h-8v-6z" fill="#99D3D7"/>
<path transform="translate(1008,770)" d="m0 0h2v2l3 1h-3v8h3v2h-4l-2-10z" fill="#94D2D1"/>
<path transform="translate(42,361)" d="m0 0 5 1 1 4h-8l1-4z"/>
<path transform="translate(447,231)" d="m0 0 7 1 2 2-1 5h-3l1-4-1-1h-9l1-2z"/>
<path transform="translate(999,772)" d="m0 0 5 1v3 1h-6l-2-1 1-3z" fill="#E1E6E0"/>
<path transform="translate(1028,622)" d="m0 0 3 2v8l-1 6h-2z"/>
<path transform="translate(1309,289)" d="m0 0h5l2 4v3l-1 5-2-1v-4l-3-1 3-2v-3l-4 1z" fill="#82C0AC"/>
<path transform="translate(454,202)" d="m0 0h3v11h-3z" fill="#D8D8D8"/>
<path transform="translate(99,877)" d="m0 0h7l1 2h-6v9h-2z" fill="#A8A8A8"/>
<path transform="translate(932,620)" d="m0 0 6 1v4l-6 1z" fill="#D4E6D0"/>
<path transform="translate(449,317)" d="m0 0h2l1 7h2l1-5 1 4-2 5h-2l-3-9z" fill="#F2F9F9"/>
<path transform="translate(1015,864)" d="m0 0h3l-1 6-1 3h-3l1-8z"/>
<path transform="translate(1015,744)" d="m0 0h3l-1 6-1 3h-3l1-8z"/>
<path transform="translate(131,687)" d="m0 0h6v2h-3l-1 9h-2z" fill="#B4B4B4"/>
<path transform="translate(1265,620)" d="m0 0 1 4h6v2h-6v6h-2v-7z" fill="#75DEE1"/>
<path transform="translate(1324,620)" d="m0 0 1 2 3 1h-2v9l2 1h-4v-10l-2-1h2z" fill="#85E4E8"/>
<path transform="translate(159,552)" d="m0 0h6v2h-3l-1 9h-2z" fill="#B4B4B4"/>
<path transform="translate(42,432)" d="m0 0 6 1v3l2 1-1 2-5-1-4 2 1-3 2-1z" fill="#393939"/>
<path transform="translate(99,295)" d="m0 0h6v2h-3l-1 9h-2z" fill="#B4B4B4"/>
<path transform="translate(981,768)" d="m0 0h1v11l-2-3v-2l-7 2 1-3 6-1z" fill="#DAD6CA"/>
<path transform="translate(1064,621)" d="m0 0 4 2h-2v9l2 1h-4l-1-11z" fill="#1C5046"/>
<path transform="translate(1278,546)" d="m0 0 4 4 2 1v2l-3 1-2-1-1 2-1-6z" fill="#FCF9F4"/>
<path transform="translate(143,548)" d="m0 0h2v8l-2 1v-3h-6l1-2h5z" fill="#929292"/>
<path transform="translate(951,776)" d="m0 0h5l1 4-1 1h-5z" fill="#FCFBF9"/>
<path transform="translate(949,769)" d="m0 0h8l1 5-2-2-5-1v3h-2z" fill="#B8D5D7"/>
<path transform="translate(1131,741)" d="m0 0 5 2v5l-3 1-3-4z" fill="#72DCE0"/>
<path transform="translate(53,683)" d="m0 0 2 2-8 8h-2l2-4z" fill="#E4E4E4"/>
<path transform="translate(1204,623)" d="m0 0 1 2-1 2 7-1v2h-7l2 3 3 2-5-1-2-3 1-5z" fill="#003437"/>
<path transform="translate(1254,505)" d="m0 0h6l2 2-1 5-2-1v-3h-6z"/>
<path transform="translate(40,370)" d="m0 0h8l1 3h-10z"/>
<path transform="translate(1329,294)" d="m0 0 2 2-1 6-4-1v-6z" fill="#7BD6B4"/>
<path transform="translate(1616,290)" d="m0 0 5 1-1 6h-4z" fill="#8BDABD"/>
<path transform="translate(1241,285)" d="m0 0h6l2 2-1 5-2-1v-3h-6z"/>
<path transform="translate(969,285)" d="m0 0h6l2 2-1 5-2-1v-3h-6z"/>
<path transform="translate(1284,622)" d="m0 0h2v11h-4z" fill="#6DDEE2"/>
<path transform="translate(107,620)" d="m0 0h7v3h-5l-1 8h-1z" fill="#3A3A3A"/>
<path transform="translate(1283,509)" d="m0 0h2v7h-6z" fill="#CAE4B5"/>
<path transform="translate(1223,505)" d="m0 0h5l2 2-1 5-2-1v-3h-6v-2z"/>
<path transform="translate(42,302)" d="m0 0 13 1-2 1-1 3h-2v-3l-7 2z" fill="#080808"/>
<path transform="translate(1625,294)" d="m0 0 4 2-1 5h-3-1v-6z" fill="#72D7CD"/>
<path transform="translate(998,289)" d="m0 0h2v7h-6z" fill="#CAE4B5"/>
<path transform="translate(938,285)" d="m0 0h5l2 2-1 5-2-1v-3h-6v-2z"/>
</svg>
