<?xml version="1.0" encoding="UTF-8"?>
<svg version="1.1" viewBox="0 0 1896 916" width="1280" height="1280" xmlns="http://www.w3.org/2000/svg">
<path transform="translate(0)" d="m0 0h1896v916h-1896z" fill="#050505"/>
<path transform="translate(0,793)" d="m0 0h1896v123h-1896z" fill="#101726"/>
<path transform="translate(878,489)" d="m0 0h143l6 2v2l5 2 8 7 4 6v2h2l2 6v24l-2 6h-2l-2 5-7 8-6 4h-2v2l-6 2-42 1h-82l-19-1-11-4-10-9-5-10-1-4v-24l4-11 10-9 4-4z" fill="#060707"/>
<path transform="translate(444,230)" d="m0 0h18l17 42 2 1 1-5 15-37 1-1h17v65h-13l-1-41-15 37-2 3h-9l-5-11-11-27-1 30-1 9h-13z" fill="#CBCBCB"/>
<path transform="translate(1225,245)" d="m0 0 8 1 5 3 2 5h2l2-5 5-3 9-1 8 3 4 6 1 3v38h-13l-1-33-1-3-7-2-5 1-1 4-1 33h-13l-1-34-2-3-6-1-4 2-2 5-1 31h-13v-49h13l1 7 5-6z" fill="#CBCBCB"/>
<path transform="translate(1108,245)" d="m0 0h7l9 3 7 6 4 9v15l-4 9-8 7-7 2h-9l-8-3-8-7-3-7v-17l4-8 7-6z" fill="#CBCBCB"/>
<path transform="translate(543,245)" d="m0 0h8l10 3 6 7 1 2v38h-13l-1-5-6 5-4 1h-7l-8-3-4-5-1-10 3-6 5-4 16-3 5-1v-6l-3-2h-6l-5 5-13-1 2-7 6-5z" fill="#CACACA"/>
<path transform="translate(681,245)" d="m0 0h8l9 3 6 5 4 9v12h-33l3 8 5 3 9-1 3-4 13 1-2 6-8 7-7 2h-10l-9-3-5-4-5-10v-17l4-8 8-7z" fill="#CACACA"/>
<path transform="translate(811,230)" d="m0 0h13l1 23 4-5 8-3 9 1 6 4 4 7v38h-13l-1-32-2-4-2-1h-9l-3 4-1 3-1 30h-13z" fill="#CBCBCB"/>
<path transform="translate(959,245)" d="m0 0h7l10 3 5 4 2 4v39h-12l-1-6-5 5-6 2-10-1-5-3-3-3-1-3v-10l6-7 10-3 14-2-2-7-2-1h-7l-5 5-12-1 1-5 5-6 6-3z" fill="#CBCBCB"/>
<path transform="translate(886,245)" d="m0 0 11 1 7 4 6 7 2 7v10h-33l3 9 4 2h7l5-3 1-2 13 1-4 8-5 4-9 3h-9l-9-3-5-4-5-10-1-11 2-9 4-6 6-5z" fill="#CBCBCB"/>
<path transform="translate(1282,246)" d="m0 0h13l1 31 3 5 1 1h8l4-4 1-3 1-30h13v49h-13l-1-7-5 5-3 2h-12l-5-3-4-5-2-6z" fill="#ccc"/>
<path transform="translate(594,245)" d="m0 0h9l9 3 5 5 2 3v4l-12 1-5-5h-7l-3 2v5l18 4 7 4 3 4v10l-7 8-9 3h-11l-9-3-5-5-3-7 6-1h8l2 4 2 1h9l3-3v-4l-18-4-7-4-3-4v-11l6-7z" fill="#CACACA"/>
<path transform="translate(1354,245)" d="m0 0h8l9 3 5 4 3 8h-13l-4-4h-8l-2 1v5l3 2 17 4 7 6 1 8-4 8-6 4-8 2h-9l-11-4-5-6-1-5 13-1 5 5h9l2-2-1-5-19-5-6-5-2-5 1-8 6-7z" fill="#CBCBCB"/>
<path transform="translate(1432,245)" d="m0 0 11 1 8 4 5 7 1 7h-13l-3-6-2-1h-8l-3 1-2 6v13l3 6 2 1h8l4-4 1-3h13l-2 9-4 5-7 4-5 1h-8l-9-3-6-5-4-8-1-5v-9l3-9 4-6 6-4z" fill="#CACACA"/>
<path transform="translate(1163,226)" d="m0 0 9 1 1 3-2 8h-9l-1 8h10v10h-10v39h-13v-39h-7v-10h7v-10l4-6 5-3z" fill="#ccc"/>
<path transform="translate(778,234)" d="m0 0h14v12h9v10h-9l1 27 7 2 2 9-1 1h-14l-5-3-3-4-1-3v-29h-6v-10h6z" fill="#CACACA"/>
<path transform="translate(632,234)" d="m0 0h14v12h9v10h-9l1 28h7l2 7v4l-11 1-8-3-3-3-1-3-1-17v-14h-6v-10h6z" fill="#CBCBCB"/>
<path transform="translate(1037,234)" d="m0 0h13v12h9v10h-9l1 27 7 2 2 9-1 1h-14l-6-4-2-4v-31h-7v-10h7z" fill="#ccc"/>
<path transform="translate(740,245)" d="m0 0h6l1 1v12h-9l-4 2-2 4-1 31h-13l-1-49h14l1 5 5-5z" fill="#CBCBCB"/>
<path transform="translate(1017,245)" d="m0 0 7 1v11l-10 1-5 4-1 3-1 30h-13v-49h13l1 7 4-6z" fill="#CBCBCB"/>
<path transform="translate(1389,246)" d="m0 0h13v49h-13z" fill="#CDCDCD"/>
<path transform="translate(567,257)" d="m0 0h1v38h-13l-1-5-6 5-4 1h-7l-8-3-4-5v-2l11-1 2-8 7-3 10-1-1 9-1 3 14 1z" fill="#B3B3B3"/>
<path transform="translate(1282,246)" d="m0 0h13l1 31 3 5 2 3-3 1h-14l-2-5z" fill="#CACACA"/>
<path transform="translate(969,272)" d="m0 0h1v9l-1 4 14 1v9h-12l-1-6-5 5-6 2-10-1-5-3-3-3v-3l12-1-1-5 1-3 7-3z" fill="#B3B3B3"/>
<path transform="translate(1111,255)" d="m0 0 6 2 4 5 1 4v10l-3 6-3 3-6 1-6-3-3-7v-11l3-6 3-3z" fill="#050506"/>
<path transform="translate(1444,277)" d="m0 0h13l-2 9-4 5-7 4-5 1h-8l-9-3-6-5v-2l11-1 4-1h8l4-4z" fill="#B3B3B3"/>
<path transform="translate(582,280)" d="m0 0h8l2 4 2 1h9l3-1 2 1 9 1v3l-6 5-7 2h-11l-9-3-5-5-3-7z" fill="#B3B3B3"/>
<path transform="translate(695,280)" d="m0 0 13 1-2 6-8 7-7 2h-10l-9-3-5-4-1-3 11-1 3-1 9 1 5-3z" fill="#B3B3B3"/>
<path transform="translate(1345,280)" d="m0 0h4l5 5h9l2-1 2 1 11 1-3 5-8 4-5 1h-9l-11-4-5-6-1-5z" fill="#B3B3B3"/>
<path transform="translate(899,280)" d="m0 0 13 1-4 8-5 4-9 3h-9l-9-3-5-4-1-3 14-2 2 1h7l5-3z" fill="#B3B3B3"/>
<path transform="translate(1057,901)" d="m0 0h19l5 3 2 2v7l-3 3h-23z" fill="#F2F2F3"/>
<path transform="translate(1106,284)" d="m0 0 7 1 4-1 2 1 10 1v3l-6 5-7 2h-9l-8-3-7-6v-1l12-1z" fill="#B3B3B3"/>
<path transform="translate(786,341)" d="m0 0h5l4 3 3-3 7 1 2 3v6l-3 3h-7l-1-3-4 3h-7l-3-4 1-7z" fill="#07080B"/>
<path transform="translate(759,376)" d="m0 0h5l3 3 4-3 7 1 1 1v11h-9l-4-3-1 3h-7l-3-4 1-6z" fill="#06080A"/>
<path transform="translate(995,901)" d="m0 0h9l1 10 2-2h8l4 4 1 3h-25z" fill="#F0F0F1"/>
<path transform="translate(942,901)" d="m0 0h9l1 9 2-1h7l5 4v3h-24z" fill="#F2F2F3"/>
<path transform="translate(1301,284)" d="m0 0h6l6 2-2 5-6 4h-12l-5-3-4-5v-1l14-1z" fill="#B3B3B3"/>
<path transform="translate(642,337)" d="m0 0h9l5 4v9l-4 4h-10z" fill="#C6C6C6"/>
<path transform="translate(1163,226)" d="m0 0 9 1 1 3-2 8h-12l-10-1 1-5 5-4z" fill="#F5F6F6"/>
<path transform="translate(633,284)" d="m0 0 1 2 11-1 4-1h5l2 7v4l-11 1-8-3-3-3z" fill="#B3B3B3"/>
<path transform="translate(969,272)" d="m0 0h1v9l-5 5-7 1-5-3-1-4 1-3 7-3z" fill="#050607"/>
<path transform="translate(1037,284)" d="m0 0 1 2 11-1 3-1 6 1 2 9-1 1h-14l-6-4-2-4z" fill="#B3B3B3"/>
<path transform="translate(551,273)" d="m0 0h4l-1 9-5 4-6 1-5-2-1-6 4-4z" fill="#060709"/>
<path transform="translate(793,284)" d="m0 0 7 1 2 9-1 1h-14l-5-3-3-4v-2l12-1z" fill="#B3B3B3"/>
<path transform="translate(884,901)" d="m0 0h8l3 8 1 7h-16z" fill="#F3F4F5"/>
<path transform="translate(887,255)" d="m0 0 7 1 5 5 1 4-1 1h-19l-1-4 5-6z" fill="#06080A"/>
<path transform="translate(811,230)" d="m0 0h1v56h12v9h-13z" fill="#B3B3B3"/>
<path transform="translate(444,230)" d="m0 0h1v56h12v9h-13z" fill="#B3B3B3"/>
<path transform="translate(870,80)" d="m0 0h6l4 5-1 8-3 2h-7l-3-4v-6z" fill="#DEDFDF"/>
<path transform="translate(1139,903)" d="m0 0h8v6h5v6l-1 1h-15l-1-1v-6h3v-5z" fill="#EBECEC"/>
<path transform="translate(927,903)" d="m0 0h8v6h5v6l-1 1h-15l-1-1v-6h3v-5z" fill="#EBECEC"/>
<path transform="translate(735,411)" d="m0 0h8v16l-2 2h-7l-2-3h3 4v-2l-6-1-2-3 1-7z" fill="#C6C6C6"/>
<path transform="translate(980,903)" d="m0 0h8v6h5v6l-1 1h-15l-1-1v-6h4z" fill="#EBECED"/>
<path transform="translate(1229,262)" d="m0 0h1v24h11v-22h1v31h-13z" fill="#B3B3B3"/>
<path transform="translate(1157,376)" d="m0 0h8v16l-3 2h-6l-2-3h3l5 1 1-4-6 1-3-2-1-6 2-4z" fill="#C8C8C8"/>
<path transform="translate(829,341)" d="m0 0h8l3 3v7l-2 3h-6l-1 5h-3v-17z" fill="#BFBFBF"/>
<path transform="translate(905,446)" d="m0 0h8l3 3v7l-2 3h-6l-1 5-3-1v-16z" fill="#BFBFBF"/>
<path transform="translate(1401,246)" d="m0 0h1v49h-13v-9h12z" fill="#B3B3B3"/>
<path transform="translate(1326,246)" d="m0 0h1v49h-13v-9h12z" fill="#B3B3B3"/>
<path transform="translate(1200,246)" d="m0 0h1v40h12v9h-13z" fill="#B3B3B3"/>
<path transform="translate(994,246)" d="m0 0h1v40h12v9h-13z" fill="#B3B3B3"/>
<path transform="translate(830,909)" d="m0 0h9 3 8l4 4 1 3h-25z" fill="#EFF0F0"/>
<path transform="translate(908,372)" d="m0 0h3v17h-10l-2-3v-7l3-3h5z" fill="#bbb"/>
<path transform="translate(943,372)" d="m0 0h3l3 11 3-11 4 1 3 9 3-10 3 1-5 16h-3l-3-10-3 10-4-1z" fill="#C0C0C0"/>
<path transform="translate(684,255)" d="m0 0 6 1 5 5 1 4h-21l1-5 5-4z" fill="#060708"/>
<path transform="translate(1392,226)" d="m0 0h6l4 3 1 4-3 5-5 2-6-3-1-7z" fill="#F1F1F2"/>
<path transform="translate(979,860)" d="m0 0 5 2 2 3v6l-4 4-7-1-2-4 1-7z" fill="#B3B3B3"/>
<path transform="translate(514,252)" d="m0 0h1v43h-13v-9h12z" fill="#B3B3B3"/>
<path transform="translate(1127,372)" d="m0 0h3l1 4 6 1 2 4-1 6-2 2h-9z" fill="#BFBFBF"/>
<path transform="translate(1160,256)" d="m0 0h1v39h-13v-9h12z" fill="#B3B3B3"/>
<path transform="translate(902,901)" d="m0 0h10l-3 12-1 3h-9l2-12z" fill="#F1F2F3"/>
<path transform="translate(865,901)" d="m0 0h9l3 9 1 6h-9l-3-8z" fill="#F1F2F3"/>
<path transform="translate(938,861)" d="m0 0h8l3 3v7l-4 4h-7z" fill="#B3B3B3"/>
<path transform="translate(1145,337)" d="m0 0h2v17h-9l-2-3v-7l3-3 6 1z" fill="#C2C2C2"/>
<path transform="translate(843,265)" d="m0 0h1v21h12v9h-13z" fill="#B3B3B3"/>
<path transform="translate(730,265)" d="m0 0h1v30h-13v-9h12z" fill="#B3B3B3"/>
<path transform="translate(749,901)" d="m0 0h9v15h-9z" fill="#EFF0F1"/>
<path transform="translate(801,376)" d="m0 0 7 1 2 3-1 7-2 2h-7l-2-2v-8z" fill="#C0C0C0"/>
<path transform="translate(798,341)" d="m0 0 7 1 2 3v6l-3 3h-7l-2-3v-7z" fill="#BEBEBE"/>
<path transform="translate(862,411)" d="m0 0h5l3 3v8l-2 2h-7l-3-4 1-7z" fill="#C2C2C2"/>
<path transform="translate(763,411)" d="m0 0h5l3 3v8l-2 2h-7l-3-4 1-7z" fill="#C2C2C2"/>
<path transform="translate(745,341)" d="m0 0h5l3 3v7l-2 3h-7l-3-4 1-7z" fill="#C3C3C3"/>
<path transform="translate(725,341)" d="m0 0h5l3 3v8l-2 2h-7l-3-4 1-7z" fill="#C2C2C2"/>
<path transform="translate(921,446)" d="m0 0 7 1 2 4-1 6-2 2h-7l-2-3v-7z" fill="#BFBFBF"/>
<path transform="translate(691,411)" d="m0 0 6 1 2 2v7l-2 3h-7l-3-4 1-7z" fill="#BFBFBF"/>
<path transform="translate(677,411)" d="m0 0 7 1 2 4-1 6-2 2h-7l-2-3v-7z" fill="#BFBFBF"/>
<path transform="translate(889,376)" d="m0 0h5l3 3v8l-2 2h-7l-3-4 1-6z" fill="#C3C3C3"/>
<path transform="translate(668,376)" d="m0 0 7 1 2 4-1 6-2 2h-7l-2-3v-7z" fill="#C1C1C1"/>
<path transform="translate(967,411)" d="m0 0 6 1 2 2v7l-3 3h-6l-3-4 1-7z" fill="#C4C4C4"/>
<path transform="translate(1118,909)" d="m0 0h10l5 3 1 4h-22l1-4z" fill="#EBECED"/>
<path transform="translate(1096,411)" d="m0 0 6 1 2 3-1 7-2 2h-6l-3-3v-6z" fill="#BEBEBE"/>
<path transform="translate(1222,341)" d="m0 0 6 1 2 4-1 6-2 2h-7l-2-3v-7z" fill="#BFBFBF"/>
<path transform="translate(1036,341)" d="m0 0 6 1 2 3-1 7-2 2h-6l-3-3v-6z" fill="#BEBEBE"/>
<path transform="translate(1044,411)" d="m0 0 6 1 2 2v7l-2 3h-7l-3-5 1-5z" fill="#C5C5C5"/>
<path transform="translate(794,909)" d="m0 0h9l5 3 2 4h-23l3-5z" fill="#ECEDEE"/>
<path transform="translate(1152,411)" d="m0 0 6 1 2 2v7l-2 3h-7l-3-5 2-6z" fill="#C4C4C4"/>
<path transform="translate(1230,376)" d="m0 0 6 1 2 2v7l-2 3h-7l-3-5 2-6z" fill="#C4C4C4"/>
<path transform="translate(1057,376)" d="m0 0 6 1 2 2v7l-2 3h-7l-3-5 2-6z" fill="#C4C4C4"/>
<path transform="translate(445,230)" d="m0 0h17l1 7h-18z" fill="#FAFBFC"/>
<path transform="translate(1093,909)" d="m0 0h9l5 3 2 4h-23l3-5z" fill="#EAEBED"/>
<path transform="translate(1030,909)" d="m0 0h9l6 4 1 3h-23l3-5z" fill="#EBEDEE"/>
<path transform="translate(707,376)" d="m0 0h7 3 5l2 3v10h-3l-1-10-3 1-1 9h-2l-1-11-3 2-1 9h-3v-12z" fill="#BDBDBD"/>
<path transform="translate(768,909)" d="m0 0h10l6 5v2h-22l2-4z" fill="#EBECED"/>
<path transform="translate(498,230)" d="m0 0h16v7h-18l1-6z" fill="#FAFAFB"/>
<path transform="translate(809,341)" d="m0 0h15l2 2v11h-3l-1-10h-2l-1 10h-3l-1-10-3 1-1 9h-2z" fill="#BCBCBC"/>
<path transform="translate(1444,277)" d="m0 0h13l-2 9h-12l-3-2 3-4z" fill="#CACACA"/>
<path transform="translate(1258,286)" d="m0 0h13v9h-13z" fill="#B3B3B3"/>
<path transform="translate(813,909)" d="m0 0h8 3 5v7h-17v-6z" fill="#EEEFF0"/>
<path transform="translate(830,411)" d="m0 0 7 1 2 6-1 1h-8l1 2 6-1v4h-8l-2-3v-7z" fill="#C2C2C2"/>
<path transform="translate(849,376)" d="m0 0 7 1 2 6-1 1h-8l1 2 6-1v4h-8l-2-3v-7z" fill="#C2C2C2"/>
<path transform="translate(1240,341)" d="m0 0h7l3 1 5-1 2 2v11h-2l-1-9-3-1-1 10h-3l-1-10-3 1-1 9h-2z" fill="#BEBEBE"/>
<path transform="translate(679,341)" d="m0 0h5l3 3v5l-8 1v2l8-1-2 3h-7l-3-4 1-6z" fill="#9FA0A1"/>
<path transform="translate(853,341)" d="m0 0h5l3 3v5l-8 1v2l8-1-2 3h-7l-3-4 1-6z" fill="#838487"/>
<path transform="translate(880,341)" d="m0 0 6 1 2 6-1 1h-8l1 2 6-1 1 3-2 1h-6l-3-3v-6z" fill="#C4C4C4"/>
<path transform="translate(943,446)" d="m0 0 6 1 2 3-1 4h-8l1 2h8l-2 3h-7l-3-4 1-7z" fill="#C1C1C1"/>
<path transform="translate(791,411)" d="m0 0 6 1 2 3-1 4h-8l1 2h8l-2 3h-7l-3-4 1-7z" fill="#C1C1C1"/>
<path transform="translate(771,376)" d="m0 0 7 1 1 1v11h-9l-2-2 1-4 4-2h3l-1-2-6 1z" fill="#9A9B9B"/>
<path transform="translate(916,376)" d="m0 0h5l3 4v9h-10l-1-1v-5l5-2h3l-1-2-6 1v-3z" fill="#A4A4A4"/>
<path transform="translate(935,341)" d="m0 0h5l3 3v5h-9l1 2h8l-2 3h-7l-3-5 1-5z" fill="#828385"/>
<path transform="translate(1144,376)" d="m0 0 6 1 2 3-1 4h-8l1 2h7l-1 3h-7l-3-4 1-7z" fill="#8D8E90"/>
<path transform="translate(982,376)" d="m0 0h5l3 3v5l-8 1 5 1 3 1-2 2h-7l-2-3v-7z" fill="#9C9D9E"/>
<path transform="translate(817,84)" d="m0 0h14l2 2v9h-3v-9l-3 1-1 8h-2l-1-8h-2l-1 8h-3z" fill="#D6D6D6"/>
<path transform="translate(904,525)" d="m0 0h8l2 3-1 6-1 1h-5l-1 4-2-1z" fill="#D3D4D4"/>
<path transform="translate(1092,376)" d="m0 0 6 1 1 7-8 1 5 1h3v2l-2 1h-6l-3-3v-6z" fill="#C3C3C3"/>
<path transform="translate(1017,376)" d="m0 0 6 1 2 3-1 4h-8l1 2h8l-2 3h-7l-3-5 1-5z" fill="#C2C2C2"/>
<path transform="translate(1111,376)" d="m0 0 6 1 1 2v10h-9l-2-2 1-4 7-2-1-2-6 1 1-3z" fill="#BCBCBC"/>
<path transform="translate(807,84)" d="m0 0h6l3 4-1 6-1 1h-7l-2-2v-6z" fill="#D8D9D9"/>
<path transform="translate(1223,411)" d="m0 0 6 1 2 3-1 4h-8l1 2h8l-2 3h-7l-3-5 2-6z" fill="#78797B"/>
<path transform="translate(1203,376)" d="m0 0 5 1 2 2v5l-8 1v2l8-1-2 3h-7l-2-3v-7z" fill="#C3C3C3"/>
<path transform="translate(1083,341)" d="m0 0 5 1 2 2v5l-8 1v2l8-1-2 3h-7l-2-3v-7z" fill="#C3C3C3"/>
<path transform="translate(923,84)" d="m0 0h6l2 2v7l-2 2h-6l-3-4 1-5z" fill="#E3E3E4"/>
<path transform="translate(1176,341)" d="m0 0 6 1 1 1v11h-9l-2-4 2-3 6-2v-2l-7 2 1-3z" fill="#8E8F90"/>
<path transform="translate(472,286)" d="m0 0h15l-1 5-2 3h-9l-3-6z" fill="#B3B3B3"/>
<path transform="translate(645,339)" d="m0 0 7 1 2 4-1 6-3 2h-5z" fill="#07080B"/>
<path transform="translate(863,337)" d="m0 0h3l1 4 6 1 1 1v11h-3l-1-10h-4v10h-3z" fill="#bbb"/>
<path transform="translate(1021,84)" d="m0 0h6l2 2v7l-2 2h-6l-2-2v-7z" fill="#DBDBDB"/>
<path transform="translate(1e3 861)" d="m0 0h8l2 5-2 4 2 5-3-1-2-4-3-1v6h-2z" fill="#B3B3B3"/>
<path transform="translate(982,446)" d="m0 0h5l2 2v11h-9l-1-1v-5l5-2h3l-1-2-6 1v-3z" fill="#C3C3C3"/>
<path transform="translate(1113,341)" d="m0 0h5l2 2v11h-9l-1-1v-5l5-2h3l-1-2-6 1v-3z" fill="#C3C3C3"/>
<path transform="translate(952,341)" d="m0 0h7 3l6 1v12h-2l-1-10-3-1-1 11h-2l-1-10h-3l-1 10h-2z" fill="#C3C3C3"/>
<path transform="translate(912,407)" d="m0 0h3l1 8 3-4h3l-2 4v4l3 5h-4l-3-4-1 4h-3z" fill="#BEBEBE"/>
<path transform="translate(912,861)" d="m0 0h8l1 1v6l-1 2 2 5h-3l-2-6-3 1-1 5h-1z" fill="#B3B3B3"/>
<path transform="translate(701,407)" d="m0 0h3l1 8 4-4 3 1-4 4 4 8-4-1-2-4h-2v5h-3z" fill="#BDBDBD"/>
<path transform="translate(791,80)" d="m0 0h2v7h7v-7h3v15h-3v-6h-7v6h-2z" fill="#DCDCDC"/>
<path transform="translate(858,376)" d="m0 0h3l2 5v3h2l1-6 1-2h3l-3 10-4 8h-4v-2l2-1-1-7z" fill="#C0C0C0"/>
<path transform="translate(890,341)" d="m0 0h8l2 2v11h-3l-1-10-3 1-1 9h-3v-12z" fill="#BCBCBC"/>
<path transform="translate(846,411)" d="m0 0h3l2 5v3h2l1-6 1-2h3l-3 10-3 7-5 1v-2l2-1-1-7z" fill="#C0C0C0"/>
<path transform="translate(755,341)" d="m0 0 3 1 1 9 3 1 1-11 3 1v12h-10l-1-2z" fill="#BEBEBE"/>
<path transform="translate(873,411)" d="m0 0h2l1 10h3l1-10h3v13h-9l-2-3v-9z" fill="#BDBDBD"/>
<path transform="translate(814,411)" d="m0 0h8l3 3v10h-3l-1-10h-4v10h-3z" fill="#BCBCBC"/>
<path transform="translate(679,376)" d="m0 0h2l1 10h3l1-10h3v13h-9l-2-3v-9z" fill="#BDBDBD"/>
<path transform="translate(833,376)" d="m0 0h8l3 3v10h-3l-1-10h-4v10h-3z" fill="#BDBDBD"/>
<path transform="translate(1068,376)" d="m0 0h2l1 10h3l1-10h3v13h-9l-2-3v-9z" fill="#BFBFBF"/>
<path transform="translate(726,376)" d="m0 0 3 1v10h4l1-11 3 1v12h-9l-2-2z" fill="#BFBFBF"/>
<path transform="translate(1086,80)" d="m0 0h2l1 13 5-1 1-12h3v12l-3 3h-7l-2-2z" fill="#D2D2D2"/>
<path transform="translate(1051,84)" d="m0 0h7l1 2v9h-8l-2-4 4-3h3v-2l-6 1z" fill="#AEAFAF"/>
<path transform="translate(652,376)" d="m0 0h3l2 8h2l1-6 1-2h3l-3 10-3 7-5 1v-2l2-1-1-8z" fill="#BFBFBF"/>
<path transform="translate(1008,80)" d="m0 0h6l3 3v2h-3l-1-2-5 1v7l5 1 4-2-1 4-1 1h-8l-3-4v-6z" fill="#DFE0E0"/>
<path transform="translate(910,80)" d="m0 0h6l3 3v2h-3l-1-2-5 1v7l5 1 4-2-1 4-1 1h-8l-3-4v-6z" fill="#DFE0E0"/>
<path transform="translate(873,861)" d="m0 0h4l4 11v3h-2l-1-4h-6l-1 4h-2l3-11z" fill="#B3B3B3"/>
<path transform="translate(963,525)" d="m0 0h5l2 3-1 6-1 1h-6l-2-3 1-5z" fill="#D6D7D7"/>
<path transform="translate(964,84)" d="m0 0h6l2 2v4h-7v3l7-1-1 3h-7l-2-2v-6z" fill="#C5C5C6"/>
<path transform="translate(921,525)" d="m0 0h5l2 2v7l-1 1h-6l-2-2v-6z" fill="#D9DADA"/>
<path transform="translate(925,376)" d="m0 0 3 1 3 6 3-7h2l-1 6-4 10-2 2h-3v-2l2-1-1-7z" fill="#C0C0C0"/>
<path transform="translate(1136,411)" d="m0 0h3l3 8 3-8 3 1-6 16-5 1v-2l3-3-4-11z" fill="#C0C0C0"/>
<path transform="translate(812,230)" d="m0 0h11v7h-11z" fill="#FDFEFF"/>
<path transform="translate(979,862)" d="m0 0 5 3-1 7-5 1-3-3 1-6z" fill="#111827"/>
<path transform="translate(1041,376)" d="m0 0 3 1 3 7 3-8h2l-2 9-4 8-4 1v-2l2-1-1-7z" fill="#C0C0C0"/>
<path transform="translate(903,411)" d="m0 0 6 1v3l-5-1-1 2 6 2 1 4-2 2h-7v-4l6 2v-3l-6-1-1-5z" fill="#C3C3C3"/>
<path transform="translate(1163,411)" d="m0 0h2l1 10h3l1-9 3-1v13h-9l-1-1z" fill="#bbb"/>
<path transform="translate(741,376)" d="m0 0 7 1v3l-6-1 2 2 5 3-1 4-1 1h-7l-2-3 3-1v2h5l-1-2-6-3 1-5z" fill="#C2C2C2"/>
<path transform="translate(871,82)" d="m0 0 5 1 1 2v6l-2 2-5-1-1-1v-7z" fill="#050506"/>
<path transform="translate(943,411)" d="m0 0 6 1v3l-5-1-1 2 6 2 1 4-2 2h-7v-4l6 2v-3l-6-1-1-5z" fill="#C3C3C3"/>
<path transform="translate(1119,407)" d="m0 0h2l1 8 4-4 3 1-4 4 4 8-4-1-4-4v5h-2z" fill="#C0C0C0"/>
<path transform="translate(582,280)" d="m0 0h8l1 5-2 1h-10l-2-1-1-4z" fill="#C8C8C8"/>
<path transform="translate(1e3 372)" d="m0 0h2v5l6-1 2 2v11h-2l-1-10-4 1-1 9h-2z" fill="#CACACA"/>
<path transform="translate(966,372)" d="m0 0h2v5l6-1 2 2v11h-2l-1-10-4 1-1 9h-2z" fill="#CACACA"/>
<path transform="translate(1095,341)" d="m0 0 6 1v3l-5-1-1 2 6 2 1 4-2 2h-7l-1-3 7 1v-3l-6-1-1-5z" fill="#C1C1C1"/>
<path transform="translate(1345,280)" d="m0 0h4l2 5-2 1h-12l-1-5z" fill="#C9C9C9"/>
<path transform="translate(695,280)" d="m0 0 13 1-1 4-2 1h-10l-2-1z" fill="#C8C8C8"/>
<path transform="translate(750,376)" d="m0 0h3v13h-3l-2-5-7-4 1-2 4 1 2 1z" fill="#515358"/>
<path transform="translate(663,341)" d="m0 0h3l3 7 3-7 3 1-5 12h-3l-4-10z" fill="#C1C1C1"/>
<path transform="translate(905,341)" d="m0 0h5l2 4-6-1-1 2 7 2 1 3-2 3h-7l-2-3 8 1-1-2-6-3 1-5z" fill="#C4C4C4"/>
<path transform="translate(786,341)" d="m0 0h5l2 4-6-1-1 1v6l7-1-1 4h-7l-3-4 1-7z" fill="#C0C0C0"/>
<path transform="translate(1022,860)" d="m0 0 5 1 1 3-8-1 3 3 5 3-1 5-1 1h-6l-2-4 7 1v-2l-6-3-1-4z" fill="#B3B3B3"/>
<path transform="translate(1017,411)" d="m0 0h5l2 4-6-1 1 2 5 2 1 3-2 3h-7l-1-3 7 1v-3l-6-1-1-5z" fill="#BFBFBF"/>
<path transform="translate(759,376)" d="m0 0h5l3 4-7-1-1 1v7l5-2 3 1-2 3h-7l-3-4 1-6z" fill="#BFBFBF"/>
<path transform="translate(812,376)" d="m0 0h2l1 11 4-2 1-9h2v13h-9l-1-1z" fill="#C8C8C8"/>
<path transform="translate(986,341)" d="m0 0h5l2 4-6-1 1 2 5 2 1 3-2 3h-7l-1-3 7 1v-3l-6-1-1-5z" fill="#C0C0C0"/>
<path transform="translate(1202,341)" d="m0 0 5 1 1 3-6-1 1 2 5 2 1 3-2 3h-7l-1-3 7 1v-3l-6-1-1-5z" fill="#C4C4C4"/>
<path transform="translate(701,341)" d="m0 0h8l2 2v11h-2l-1-9-3-1-2 10h-2z" fill="#C6C6C6"/>
<path transform="translate(940,863)" d="m0 0h6l1 2v6l-2 2h-5z" fill="#111827"/>
<path transform="translate(999,525)" d="m0 0h5l2 3v3h-7v2l6-1-1 3h-6l-1-1v-7z" fill="#C6C6C7"/>
<path transform="translate(938,525)" d="m0 0h5l2 3v3h-7v2l6-1-1 3h-6l-1-1v-7z" fill="#C6C6C7"/>
<path transform="translate(953,446)" d="m0 0h8l2 2v11h-2l-1-9h-4l-1 9h-2z" fill="#C6C6C6"/>
<path transform="translate(1207,411)" d="m0 0h2l1 11h4l1-11h2v13h-9l-1-2z" fill="#C8C8C8"/>
<path transform="translate(1061,411)" d="m0 0h2l1 11h4l1-11h2v13h-9l-1-2z" fill="#C8C8C8"/>
<path transform="translate(983,411)" d="m0 0h8l2 2v11h-2l-2-10h-4v10h-2z" fill="#BFBFBF"/>
<path transform="translate(719,411)" d="m0 0h8l2 2v11h-2l-1-9h-4l-1 9h-2z" fill="#C7C7C7"/>
<path transform="translate(1070,341)" d="m0 0 6 1v3l-5-1-1 2 6 2 1 4-2 2h-6l-2-3h7l-3-2-4-3 1-4z" fill="#C3C3C3"/>
<path transform="translate(1074,411)" d="m0 0h8l2 2v11h-2l-1-10h-3l-2 10h-2z" fill="#BEBEBE"/>
<path transform="translate(1186,376)" d="m0 0h8l2 2v11h-2l-1-10h-3l-2 10h-2z" fill="#BEBEBE"/>
<path transform="translate(1173,376)" d="m0 0h8l2 2v11h-2l-1-10h-3l-2 10h-2z" fill="#BEBEBE"/>
<path transform="translate(1123,341)" d="m0 0h8l2 2v11h-2l-1-10h-3l-2 10h-2z" fill="#BEBEBE"/>
<path transform="translate(1186,341)" d="m0 0h8l2 2v11h-2l-1-11-4 2-1 9h-2z" fill="#C9C9C9"/>
<path transform="translate(913,909)" d="m0 0h9v7h-9z" fill="#E9EAEB"/>
<path transform="translate(963,860)" d="m0 0 6 2 1 3-7-2h-2v8l5 1 4-2-2 4-1 1-7-1-2-3v-7z" fill="#B3B3B3"/>
<path transform="translate(1e3 411)" d="m0 0h2l1 11 4-1 1-10h2v13h-8l-2-2z" fill="#C2C2C2"/>
<path transform="translate(1046,341)" d="m0 0h2l1 11 4-1 1-10h2v13h-8l-2-2z" fill="#C2C2C2"/>
<path transform="translate(971,341)" d="m0 0h2l1 11 4-1 1-10h2v13h-8l-2-2z" fill="#C2C2C2"/>
<path transform="translate(1101,84)" d="m0 0h6l2 3-6-1v2l6 2-1 5h-7l-1-3 6 1v-2l-6-2z" fill="#D7D7D8"/>
<path transform="translate(975,84)" d="m0 0h6l2 3-6-1v2l6 2-1 5h-7l-1-3 6 1v-2l-6-2z" fill="#D7D7D8"/>
<path transform="translate(882,84)" d="m0 0h2l1 8 3 1v-9h3v11h-8l-1-1z" fill="#D9DADA"/>
<path transform="translate(1109,411)" d="m0 0 6 1 1 3-6-1-1 1v6l7-1-2 4h-6l-3-4 1-7z" fill="#C2C2C2"/>
<path transform="translate(1e3 341)" d="m0 0h5l2 4-6-1-1 1v6l7-1-1 4h-7l-3-5 1-5z" fill="#C1C1C1"/>
<path transform="translate(1049,860)" d="m0 0 5 2v2l-6-1-1 2 7 3v6l-7 1-3-3h3l5 1v-3l-7-3v-5z" fill="#B3B3B3"/>
<path transform="translate(925,861)" d="m0 0h9v1h-7v5h6v2h-6v4h7v2h-9z" fill="#B3B3B3"/>
<path transform="translate(1023,341)" d="m0 0 6 1 1 3-6-1-1 1v6l7-1-1 4h-7l-3-5 1-5z" fill="#C1C1C1"/>
<path transform="translate(919,341)" d="m0 0 3 1 3 7 3-8h2l-1 6-3 7h-3l-4-11z" fill="#C3C3C3"/>
<path transform="translate(837,84)" d="m0 0h6l2 3v3h-8l1 2h7l-2 3h-6l-3-4v-3l9 1v-2h-7z" fill="#DEDFDF"/>
<path transform="translate(1032,861)" d="m0 0h8v1h-6v5h6v2h-6v4h7v2h-9z" fill="#B3B3B3"/>
<path transform="translate(857,861)" d="m0 0h8v1h-6v5h6v2h-6v4h7v2h-9z" fill="#B3B3B3"/>
<path transform="translate(915,899)" d="m0 0h5l2 2-1 5-6 1-2-2 1-5z" fill="#E9EAEA"/>
<path transform="translate(933,443)" d="m0 0h2v3l3 1-3 1v9l3 1-4 1-2-2v-9h-2v-2h2z" fill="#BFBFBF"/>
<path transform="translate(953,84)" d="m0 0h6l1 3h-5l6 4-2 4h-6l-1-3 6 1v-2l-6-2z" fill="#DADADA"/>
<path transform="translate(971,525)" d="m0 0h2l1 7 3 1v-8h3v10h-8l-1-2z" fill="#CFD0D0"/>
<path transform="translate(1191,408)" d="m0 0 3 1v2h2v2h-2v9h2v2h-4l-1-2v-9h-2v-2h2z" fill="#BFBFBF"/>
<path transform="translate(993,373)" d="m0 0 3 1v2h2v2h-2v9h2v2h-4l-1-2v-9h-2v-2h2z" fill="#BFBFBF"/>
<path transform="translate(901,281)" d="m0 0h11l-2 5h-11v-3z" fill="#CBCBCB"/>
<path transform="translate(885,522)" d="m0 0h8v2h-6v4h6v1h-6v4h6v2h-8z" fill="#E3E3E4"/>
<path transform="translate(1158,338)" d="m0 0h2v3h2v2h-2v9l3 1-4 1-2-2v-9l-2-1z" fill="#BFBFBF"/>
<path transform="translate(1031,84)" d="m0 0h8l1 1v10h-2l-1-8-3-1-1 9h-2z" fill="#DFDFE0"/>
<path transform="translate(933,84)" d="m0 0h2l1 9 3-1 1-8h2v11h-8l-1-1z" fill="#D9D9D9"/>
<path transform="translate(990,861)" d="m0 0h1l1 9 1 2 5-1 1-10h2v10l-3 4-7-1-1-1z" fill="#B3B3B3"/>
<path transform="translate(897,861)" d="m0 0h1l1 9 1 2 5-1 1-10h2v10l-3 4-7-1-1-1z" fill="#B3B3B3"/>
<path transform="translate(959,411)" d="m0 0h2v16l-2 2h-3v-2h2v-15z" fill="#BCBCBC"/>
<path transform="translate(793,376)" d="m0 0 3 1v14l-2 3h-3l1-3z" fill="#BCBCBC"/>
<path transform="translate(1153,413)" d="m0 0 4 1 1 6-1 2h-5l-1-1v-6z" fill="#060708"/>
<path transform="translate(1045,413)" d="m0 0 4 1 1 6-1 2h-5l-1-1v-6z" fill="#060708"/>
<path transform="translate(804,406)" d="m0 0h3v3h-3v2h3v2h-3v11h-2v-11h-2v-2h2v-4z" fill="#C6C6C6"/>
<path transform="translate(1231,378)" d="m0 0 4 1 1 6-1 2h-5l-1-1v-6z" fill="#060708"/>
<path transform="translate(1058,378)" d="m0 0 4 1 1 6-1 2h-5l-1-1v-6z" fill="#060708"/>
<path transform="translate(1222,343)" d="m0 0 4 1 1 1v6l-1 1h-5l-1-6z" fill="#06070A"/>
<path transform="translate(1063,84)" d="m0 0h6l2 3-3 1v-2h-4v6h7l-2 3h-6l-2-2v-7z" fill="#DBDCDC"/>
<path transform="translate(943,446)" d="m0 0 6 1 2 3-1 3-1-1h-8l-1-4z" fill="#797A7C"/>
<path transform="translate(791,411)" d="m0 0 6 1 2 3-1 3-1-1h-8l-1-4z" fill="#7C7D80"/>
<path transform="translate(1140,343)" d="m0 0 4 1 1 1-1 7h-5l-1-6z" fill="#07080A"/>
<path transform="translate(922,448)" d="m0 0 4 1 1 1v6l-5 1-2-3 1-5z" fill="#07080B"/>
<path transform="translate(992,442)" d="m0 0h3v17h-3z" fill="#bbb"/>
<path transform="translate(678,413)" d="m0 0 4 1 1 1v6l-5 1-2-3 1-5z" fill="#07080B"/>
<path transform="translate(1096,413)" d="m0 0 4 1 1 1v6l-5 1-2-3 1-5z" fill="#060709"/>
<path transform="translate(968,413)" d="m0 0 4 1 1 5-2 3-5-1v-6z" fill="#060709"/>
<path transform="translate(863,413)" d="m0 0 4 1 1 6-2 2h-4l-1-7z" fill="#07080B"/>
<path transform="translate(764,413)" d="m0 0 4 1 1 6-2 2h-4l-1-7z" fill="#07080B"/>
<path transform="translate(669,407)" d="m0 0h3v17h-3z" fill="#bbb"/>
<path transform="translate(890,378)" d="m0 0 4 1 1 6-2 2h-4l-1-7z" fill="#07080B"/>
<path transform="translate(1017,376)" d="m0 0 6 1 2 3-1 3-1-1h-8v-4z" fill="#78797B"/>
<path transform="translate(781,372)" d="m0 0h3v17h-3z" fill="#bbb"/>
<path transform="translate(1036,343)" d="m0 0 4 1 1 1v6l-5 1-2-3 1-5z" fill="#060709"/>
<path transform="translate(1043,81)" d="m0 0h3v3h2v2h-2v7h2v2l-5-1-1-10z" fill="#D8D9D9"/>
<path transform="translate(1073,81)" d="m0 0h3v3h2v2h-2v7h2v2l-5-1-1-10z" fill="#D2D3D3"/>
<path transform="translate(1009,525)" d="m0 0h5l1 3h-5l5 2-1 5h-6l-1-3 5 1-5-4z" fill="#D7D8D8"/>
<path transform="translate(1220,416)" d="m0 0h10v3h-8l1 2h8l-2 3h-7l-3-5z" fill="#C2C2C2"/>
<path transform="translate(830,411)" d="m0 0 7 1 1 3h-2v2h-9l1-4z" fill="#7A7B7E"/>
<path transform="translate(930,407)" d="m0 0h2v17h-3v-16z" fill="#bbb"/>
<path transform="translate(802,378)" d="m0 0 4 1 1 1-1 7-5-1-1-5z" fill="#07080B"/>
<path transform="translate(669,378)" d="m0 0 4 1 1 1-1 7-5-1-1-5z" fill="#06080A"/>
<path transform="translate(1092,376)" d="m0 0 6 1 1 3h-2v2l-9 1 1-5z" fill="#77787A"/>
<path transform="translate(849,376)" d="m0 0 7 1 1 3h-2v2h-9l1-4z" fill="#7A7B7E"/>
<path transform="translate(1214,336)" d="m0 0h3v2l-3 3h3v2h-3v11h-2v-11h-2v-2h2l1-4z" fill="#C7C7C7"/>
<path transform="translate(692,413)" d="m0 0 4 1 1 5-2 3-5-1v-6z" fill="#060608"/>
<path transform="translate(707,376)" d="m0 0h7l-4 4-1 9h-3v-12z" fill="#BCBCBC"/>
<path transform="translate(1158,378)" d="m0 0 4 1 1 5-2 3-4-1-1-1v-5z" fill="#060709"/>
<path transform="translate(943,372)" d="m0 0h3l3 11 2 1v5l-4-1z" fill="#C2C2C2"/>
<path transform="translate(746,343)" d="m0 0 4 1 1 5-2 3-5-1v-6z" fill="#060709"/>
<path transform="translate(726,343)" d="m0 0 4 1 1 5-2 3h-4l-1-7z" fill="#07080B"/>
<path transform="translate(989,525)" d="m0 0h5l1 3-5-1v2l5 1 1 3-1 2h-6l-1-3 4 1 1-1-5-2z" fill="#DADADB"/>
<path transform="translate(967,443)" d="m0 0h2v3h3v2h-3l1 8 2 1v2l-5-1v-10h-2v-2h2z" fill="#C6C6C6"/>
<path transform="translate(886,411)" d="m0 0h6v2l-3 2-1 9h-3v-12z" fill="#BDBDBD"/>
<path transform="translate(1034,408)" d="m0 0h2v3h3v2h-3l1 8 2 1v2l-5-1v-10h-2v-2h2z" fill="#C6C6C6"/>
<path transform="translate(753,408)" d="m0 0h2v3h3v2h-3l1 8 2 1v2l-5-1v-10h-2v-2h2z" fill="#C6C6C6"/>
<path transform="translate(1131,378)" d="m0 0 4 1 1 1v6l-5 1-1-1v-7z" fill="#050607"/>
<path transform="translate(1203,376)" d="m0 0 5 1 2 3h-2v2h-9l1-4z" fill="#6C6E71"/>
<path transform="translate(879,373)" d="m0 0h2v3h3v2h-3l1 8 2 1v2l-5-1v-10h-2v-2h2z" fill="#C6C6C6"/>
<path transform="translate(768,341)" d="m0 0h7v2l-4 1v10h-3z" fill="#BDBDBD"/>
<path transform="translate(1083,341)" d="m0 0 5 1 2 3h-2v2h-9l1-4z" fill="#6C6E71"/>
<path transform="translate(715,338)" d="m0 0h2v3h3v2h-3l1 8 2 1v2l-5-1v-10h-2v-2h2z" fill="#C5C5C5"/>
<path transform="translate(909,448)" d="m0 0 4 1v7l-5 1-1-7z" fill="#060709"/>
<path transform="translate(800,343)" d="m0 0 4 2v6l-5 1-1-1v-7z" fill="#060709"/>
<path transform="translate(884,342)" d="m0 0 3 1 1 5-1 1h-8l-1 2 1-7z" fill="#737477"/>
<path transform="translate(1066,908)" d="m0 0h7l1 5-1 1h-7z" fill="#111827"/>
<path transform="translate(845,861)" d="m0 0h8v1h-6v5h6v2h-6v6h-2z" fill="#B3B3B3"/>
<path transform="translate(904,378)" d="m0 0 4 2-1 7-5-1v-7z" fill="#060708"/>
<path transform="translate(863,337)" d="m0 0h2v6l2 1-1 10h-3z" fill="#BEBEBE"/>
<path transform="translate(842,341)" d="m0 0h7v2l-3 1-1 10h-3z" fill="#BCBCBC"/>
<path transform="translate(833,343)" d="m0 0 4 1v7l-5 1-1-7z" fill="#060708"/>
<path transform="translate(895,525)" d="m0 0 4 2 4-2-2 6 2 4h-3l-1-2-4 2 1-6z" fill="#D6D6D7"/>
<path transform="translate(736,413)" d="m0 0 4 1v7l-4 1-2-2v-5z" fill="#060709"/>
<path transform="translate(962,372)" d="m0 0 3 1-5 16h-3v-3h2l1-8z" fill="#C2C2C2"/>
<path transform="translate(849,346)" d="m0 0h11v2h-8l1 4 8-1-2 3h-7l-3-4z" fill="#C4C4C4"/>
<path transform="translate(1048,84)" d="m0 0 2 1v2l6-1v2l-6 3-1 4-1-2h-2v-7h2z" fill="#060709"/>
<path transform="translate(931,346)" d="m0 0h11v2h-8l1 3h8l-2 3h-7l-3-5z" fill="#C5C5C5"/>
<path transform="translate(651,338)" d="m0 0 4 2 1 1v9l-4 4-1-2 2-5-1-6-2-2z" fill="#C3C3C3"/>
<path transform="translate(868,85)" d="m0 0h1l2 7 5-1 1-6h1l1 8-3 2h-7l-2-4z" fill="#D1D2D2"/>
<path transform="translate(972,87)" d="m0 0 1 2 7 2v2h-15v-3h7z" fill="#080B10"/>
<path transform="translate(953,525)" d="m0 0h5l1 3h-5l-1 5 6-1-1 3h-6l-1-1v-7z" fill="#DDDDDE"/>
<path transform="translate(981,452)" d="m0 0 6 1-1 4-3 2-4-1v-5z" fill="#747576"/>
<path transform="translate(735,411)" d="m0 0h4v2l-4 2v5l1 4-4-2-1-6 2-4z" fill="#C0C0C0"/>
<path transform="translate(900,380)" d="m0 0h1v6l6 1 2-5h1v7h-9l-2-3v-5z" fill="#C7C7C7"/>
<path transform="translate(1112,347)" d="m0 0 6 1-1 4-3 2-4-1v-5z" fill="#747475"/>
<path transform="translate(944,84)" d="m0 0h7v2l-3 1-1 8h-3z" fill="#D4D5D5"/>
<path transform="translate(893,84)" d="m0 0h7v2l-3 1-1 8h-3z" fill="#D4D5D5"/>
<path transform="translate(954,527)" d="m0 0h7v6l-6 1-2-1v-5z" fill="#07090C"/>
<path transform="translate(701,407)" d="m0 0h2l1 17h-3z" fill="#BFBFBF"/>
<path transform="translate(1116,380)" d="m0 0m-3 1 3 1-1 5h-8l1-4z" fill="#737474"/>
<path transform="translate(734,376)" d="m0 0 3 1v12l-4-1z" fill="#C2C2C2"/>
<path transform="translate(1157,376)" d="m0 0h4v2l-4 2v5l1 4-4-2-1-6 2-4z" fill="#C0C0C0"/>
<path transform="translate(763,341)" d="m0 0 3 1v12h-3l-1-4z" fill="#C3C3C3"/>
<path transform="translate(1145,337)" d="m0 0h2v17h-2l-1-4v-5-3z" fill="#C9C9C9"/>
<path transform="translate(1006,85)" d="m0 0h1l2 7 5-1 3-1-1 4-1 1h-8l-2-4z" fill="#D3D3D4"/>
<path transform="translate(908,85)" d="m0 0h1l2 7 5-1 3-1-1 4-1 1h-8l-2-4z" fill="#D3D3D4"/>
<path transform="translate(873,861)" d="m0 0h4l1 6-1 2h-4l-1-5z" fill="#74777D"/>
<path transform="translate(924,411)" d="m0 0h3v13h-3z" fill="#bbb"/>
<path transform="translate(809,341)" d="m0 0h7l-1 3-3 1-1 9h-2z" fill="#C7C7C7"/>
<path transform="translate(695,341)" d="m0 0h3v13h-3z" fill="#bbb"/>
<path transform="translate(919,450)" d="m0 0 3 6 5-1 2-1-1 4-1 1h-7l-2-3v-5z" fill="#C5C5C5"/>
<path transform="translate(975,446)" d="m0 0h2v13h-3v-12z" fill="#bbb"/>
<path transform="translate(675,415)" d="m0 0 3 6 5-1 2-1-1 4-1 1h-7l-2-3v-5z" fill="#C5C5C5"/>
<path transform="translate(714,411)" d="m0 0h2v13h-3v-12z" fill="#bbb"/>
<path transform="translate(780,411)" d="m0 0h7v2l-4 2-1 9h-2z" fill="#C6C6C6"/>
<path transform="translate(809,411)" d="m0 0 3 1v12h-3z" fill="#bbb"/>
<path transform="translate(1027,376)" d="m0 0h7v2l-3 1-2 10h-2z" fill="#BEBEBE"/>
<path transform="translate(825,376)" d="m0 0h7v2l-4 2-1 9h-2z" fill="#C6C6C6"/>
<path transform="translate(692,376)" d="m0 0h7v2l-4 2-1 9h-2z" fill="#C6C6C6"/>
<path transform="translate(915,341)" d="m0 0h2v13h-3v-12z" fill="#bbb"/>
<path transform="translate(659,341)" d="m0 0h2v13h-3v-12z" fill="#bbb"/>
<path transform="translate(967,411)" d="m0 0h4v2l-4 2v7h-3l-1-7z" fill="#BFBFBF"/>
<path transform="translate(1059,341)" d="m0 0h7v2l-4 2-1 9h-2z" fill="#BEBEBE"/>
<path transform="translate(889,342)" d="m0 0 4 1-1 11h-3z" fill="#BDBDBD"/>
<path transform="translate(1232,341)" d="m0 0h7v2l-4 2-1 9h-2z" fill="#C7C7C7"/>
<path transform="translate(1165,341)" d="m0 0h7v2l-4 2-1 9h-2z" fill="#C7C7C7"/>
<path transform="translate(981,525)" d="m0 0h6v2h-3v8h-3z" fill="#D0D0D1"/>
<path transform="translate(771,376)" d="m0 0 7 1 1 1v11h-1l-1-8-4-2-4 1z" fill="#bbb"/>
<path transform="translate(741,376)" d="m0 0 7 1v3l-6-1 2 4-2 1-3-2 1-5z" fill="#C1C1C1"/>
<path transform="translate(745,341)" d="m0 0h5l-5 4v7h-3l-1-7z" fill="#BFBFBF"/>
<path transform="translate(924,86)" d="m0 0h4l1 5-1 2-5-1v-5z" fill="#07080A"/>
<path transform="translate(1163,411)" d="m0 0h2l1 10 4 2-1 1h-5l-1-1z" fill="#C3C3C3"/>
<path transform="translate(1199,411)" d="m0 0h6v2l-4 1v10h-2z" fill="#C1C1C1"/>
<path transform="translate(1176,411)" d="m0 0h6v2l-4 1v10h-2z" fill="#C1C1C1"/>
<path transform="translate(1241,376)" d="m0 0h6v2l-4 1v10h-2z" fill="#C1C1C1"/>
<path transform="translate(1213,376)" d="m0 0h6v2l-4 1v10h-2z" fill="#C1C1C1"/>
<path transform="translate(1081,376)" d="m0 0h6v2l-4 1v10h-2z" fill="#C1C1C1"/>
<path transform="translate(1022,86)" d="m0 0h4l1 5-1 2-5-1z" fill="#07080B"/>
<path transform="translate(904,525)" d="m0 0h2l1 2v7l-1 5-2-1z" fill="#D7D7D8"/>
<path transform="translate(816,342)" d="m0 0 3 1v11h-3z" fill="#BEBEBE"/>
<path transform="translate(1010,861)" d="m0 0 4 1 1 4-2 4 2 5-3-1-2-6 2-4-2-1z" fill="#B3B3B3"/>
<path transform="translate(1019,417)" d="m0 0 5 1 1 3-2 3h-7l-1-3 7 1v-3l-3-1z" fill="#C4C4C4"/>
<path transform="translate(1044,411)" d="m0 0 6 1 1 2-2 2-1-2-4 1-1 4h-3l1-5z" fill="#BFBFBF"/>
<path transform="translate(1142,383)" d="m0 0h9v1h-8l1 2h7l-1 3h-7l-2-4z" fill="#BEBEBE"/>
<path transform="translate(738,379)" d="m0 0 4 4 4 2v2h-5l-4-1z" fill="#07090C"/>
<path transform="translate(988,347)" d="m0 0 5 1 1 3-2 3h-7l-1-3 7 1v-3l-3-1z" fill="#C4C4C4"/>
<path transform="translate(1202,341)" d="m0 0 5 1 1 3-6-1 2 5-5-2 1-5z" fill="#BFBFBF"/>
<path transform="translate(905,341)" d="m0 0h5l2 4-6-1-1 2h2l1 3-5-2 1-5z" fill="#C1C1C1"/>
<path transform="translate(1176,341)" d="m0 0 6 1 1 1v11h-1v-9h-2v-2l-7 2 1-3z" fill="#bbb"/>
<path transform="translate(809,86)" d="m0 0 4 1v5l-5 1-1-4z" fill="#060608"/>
<path transform="translate(914,862)" d="m0 0 5 1 1 3-2 2-5-1z" fill="#111827"/>
<path transform="translate(740,422)" d="m0 0 1 2h2l-1 4-1 1h-7l-2-3h3 4z" fill="#C0C0C0"/>
<path transform="translate(846,411)" d="m0 0h3l2 5v3h2v2h-4z" fill="#BEBEBE"/>
<path transform="translate(1078,411)" d="m0 0 5 1 1 1v11h-2l-1-10-3-1z" fill="#C2C2C2"/>
<path transform="translate(858,376)" d="m0 0h3l2 5v3h2v2h-4z" fill="#BEBEBE"/>
<path transform="translate(1190,376)" d="m0 0 5 1 1 1v11h-2l-1-10-3-1z" fill="#C2C2C2"/>
<path transform="translate(1177,376)" d="m0 0 5 1 1 1v11h-2l-1-10-3-1z" fill="#C2C2C2"/>
<path transform="translate(1218,344)" d="m0 0h2l1 8h6v2h-7l-2-3z" fill="#C4C4C4"/>
<path transform="translate(1127,341)" d="m0 0 5 1 1 1v11h-2l-1-10-3-1z" fill="#C2C2C2"/>
<path transform="translate(829,341)" d="m0 0h8l3 3v5l-2 1-1-5-7-2z" fill="#C1C1C1"/>
<path transform="translate(927,84)" d="m0 0 4 2v7l-3 2-4-2h4v-7l-3-1z" fill="#D3D3D3"/>
<path transform="translate(905,446)" d="m0 0h8l3 3v5l-2 1-2-6-6-1z" fill="#C2C2C2"/>
<path transform="translate(697,416)" d="m0 0h2l-1 7-1 1h-7l-1-2 6-1z" fill="#C4C4C4"/>
<path transform="translate(1251,341)" d="m0 0 5 1 1 1v11h-2l-1-9z" fill="#BDBDBD"/>
<path transform="translate(1051,89)" d="m0 0 3 1-2 1v2h5l1-4v6h-7l-2-4z" fill="#DFDFE0"/>
<path transform="translate(1006,530)" d="m0 0 6 1v3l-5-1-5 1-3-1v-2z" fill="#080A0E"/>
<path transform="translate(668,376)" d="m0 0h5v2l-4 1-2 7h-2v-7z" fill="#C5C5C5"/>
<path transform="translate(759,376)" d="m0 0h5l3 4-7-1-4 5 1-7z" fill="#C4C4C4"/>
<path transform="translate(1190,341)" d="m0 0 5 1 1 1v11h-2l-1-12z" fill="#C7C7C7"/>
<path transform="translate(882,84)" d="m0 0h2l1 8 4 3h-6l-1-1z" fill="#E0E1E1"/>
<path transform="translate(1007,862)" d="m0 0 5 1v4l-5 1z" fill="#111827"/>
<path transform="translate(1145,411)" d="m0 0 3 1-4 11-1-2-2-1z" fill="#BDBDBD"/>
<path transform="translate(1109,411)" d="m0 0 6 1 1 3-6-1-2 6h-1l-1-7z" fill="#BEBEBE"/>
<path transform="translate(1068,376)" d="m0 0h2v10h-3v-9z" fill="#bbb"/>
<path transform="translate(1e3 376)" d="m0 0 5 1 1 1v11h-2l-1-12z" fill="#C8C8C8"/>
<path transform="translate(970,376)" d="m0 0 5 1 1 1v11h-2l-1-12z" fill="#C8C8C8"/>
<path transform="translate(801,376)" d="m0 0h5v2l-4 1-2 7-2-1v-6z" fill="#C6C6C6"/>
<path transform="translate(663,341)" d="m0 0h3l3 10-3 1-3-8z" fill="#BEBEBE"/>
<path transform="translate(1086,80)" d="m0 0h2l1 13h-3z" fill="#CECECE"/>
<path transform="translate(963,527)" d="m0 0h4l1 5-3 2-2-1z" fill="#08090D"/>
<path transform="translate(922,527)" d="m0 0 4 1v5l-3 1-2-2z" fill="#07090C"/>
<path transform="translate(971,525)" d="m0 0h2l1 7 4 2v1h-6l-1-2z" fill="#D8D8D9"/>
<path transform="translate(1215,411)" d="m0 0h2v13h-2l-1-4z" fill="#CACACA"/>
<path transform="translate(1069,411)" d="m0 0h2v13h-2l-1-4z" fill="#CACACA"/>
<path transform="translate(1010,411)" d="m0 0h2v13l-3-1z" fill="#CACACA"/>
<path transform="translate(1116,381)" d="m0 0h1v8h-8l-1-2h7v-5z" fill="#C4C4C4"/>
<path transform="translate(713,377)" d="m0 0 4 1-1 11h-2z" fill="#CBCBCB"/>
<path transform="translate(1240,341)" d="m0 0h2l1 4-1 9h-2z" fill="#BFBFBF"/>
<path transform="translate(1054,341)" d="m0 0h2v13l-3-1z" fill="#CACACA"/>
<path transform="translate(979,341)" d="m0 0h2v13l-3-1z" fill="#CACACA"/>
<path transform="translate(930,525)" d="m0 0h5v2l-2 1-1 7h-2z" fill="#D3D4D4"/>
<path transform="translate(907,527)" d="m0 0h4l1 4-3 3-2-1z" fill="#07090C"/>
<path transform="translate(1152,411)" d="m0 0 6 1 1 2-2 2-1-2-4 1-2 4-1-5z" fill="#BFBFBF"/>
<path transform="translate(903,411)" d="m0 0 6 1v3l-5-1-3 3-1-4z" fill="#BCBCBC"/>
<path transform="translate(1163,389)" d="m0 0h2l-1 4-2 1h-6l-2-3h3l5 1z" fill="#C3C3C3"/>
<path transform="translate(925,376)" d="m0 0 3 1 3 9-3 1z" fill="#BEBEBE"/>
<path transform="translate(1230,376)" d="m0 0 6 1 1 2-2 2-1-2-4 1-2 4-1-5z" fill="#BFBFBF"/>
<path transform="translate(1057,376)" d="m0 0 6 1 1 2-2 2-1-2-4 1-2 4-1-5z" fill="#BFBFBF"/>
<path transform="translate(796,345)" d="m0 0h1v6l6 1v2h-6l-2-3v-5z" fill="#C6C6C6"/>
<path transform="translate(882,861)" d="m0 0h11l-4 2-1 12h-1l-1-12z" fill="#B3B3B3"/>
<path transform="translate(960,447)" d="m0 0 3 1v11h-2z" fill="#CBCBCB"/>
<path transform="translate(1102,416)" d="m0 0h1v6l-2 2h-6l-2-3h7z" fill="#C7C7C7"/>
<path transform="translate(943,411)" d="m0 0 6 1v3l-5-1-3 3-1-4z" fill="#BDBDBD"/>
<path transform="translate(726,412)" d="m0 0 3 1v11h-2z" fill="#CBCBCB"/>
<path transform="translate(1041,376)" d="m0 0 3 1 3 9h-3z" fill="#BFBFBF"/>
<path transform="translate(1042,346)" d="m0 0h1v6l-2 2h-6l-2-3h7z" fill="#C7C7C7"/>
<path transform="translate(919,341)" d="m0 0 3 1 3 9h-3z" fill="#BFBFBF"/>
<path transform="translate(708,342)" d="m0 0 3 1v11h-2z" fill="#CBCBCB"/>
<path transform="translate(1106,90)" d="m0 0h3l-1 5h-7l-1-3 6 1z" fill="#DADADB"/>
<path transform="translate(980,90)" d="m0 0h3l-1 5h-7l-1-3 6 1z" fill="#DADADB"/>
<path transform="translate(1031,84)" d="m0 0 4 2-2 9h-2z" fill="#E4E4E5"/>
</svg>
